<?xml version="1.0" encoding="UTF-8"?>
<svg xmlns="http://www.w3.org/2000/svg" width="985px" height="530px" viewBox="0 0 985 530" role="img" aria-labelledby="title desc">
  <title id="title">Agustin Caceres GitHub profile README</title>
  <desc id="desc">Terminal style profile card with ASCII portrait and profile data.</desc>
  <style>
    text { font-family: Consolas, 'Liberation Mono', monospace; font-size: 16px; font-weight: 700; white-space: pre; }
  </style>
  <rect width="985" height="530" rx="15" fill="#0d1117"/>
  <rect x="10" y="10" width="965" height="510" rx="12" fill="#161b22" stroke="#30363d"/>
  <g>
    <text x="100" y="48" fill="#ffd166">.</text>
    <text x="108" y="48" fill="#ffd166">,</text>
    <text x="116" y="48" fill="#ffd166">:</text>
    <text x="124" y="48" fill="#ffd166">:</text>
    <text x="132" y="48" fill="#ffd166">:</text>
    <text x="140" y="48" fill="#ffd166">:</text>
    <text x="148" y="48" fill="#ffd166">,</text>
    <text x="84" y="64" fill="#ffd166">,</text>
    <text x="92" y="64" fill="#ffd166">,</text>
    <text x="100" y="64" fill="#ffd166">,</text>
    <text x="108" y="64" fill="#ffd166">.</text>
    <text x="68" y="80" fill="#ffd166">.</text>
    <text x="164" y="80" fill="#ffd166">.</text>
    <text x="172" y="80" fill="#ffd166">,</text>
    <text x="180" y="80" fill="#ffd166">:</text>
    <text x="188" y="80" fill="#e6edf3">;</text>
    <text x="196" y="80" fill="#e6edf3">;</text>
    <text x="204" y="80" fill="#e6edf3">+</text>
    <text x="212" y="80" fill="#e6edf3">+</text>
    <text x="220" y="80" fill="#e6edf3">+</text>
    <text x="228" y="80" fill="#ff4fa3">+</text>
    <text x="236" y="80" fill="#ff4fa3">+</text>
    <text x="244" y="80" fill="#ff4fa3">+</text>
    <text x="252" y="80" fill="#ff4fa3">;</text>
    <text x="260" y="80" fill="#ff4fa3">;</text>
    <text x="268" y="80" fill="#ffd166">:</text>
    <text x="276" y="80" fill="#ffd166">,</text>
    <text x="284" y="80" fill="#ffd166">.</text>
    <text x="124" y="96" fill="#ffd166">,</text>
    <text x="132" y="96" fill="#ffd166">:</text>
    <text x="140" y="96" fill="#e6edf3">+</text>
    <text x="148" y="96" fill="#39d6ff">?</text>
    <text x="156" y="96" fill="#39d6ff">S</text>
    <text x="164" y="96" fill="#39d6ff">@</text>
    <text x="172" y="96" fill="#39d6ff">#</text>
    <text x="180" y="96" fill="#39d6ff">@</text>
    <text x="188" y="96" fill="#39d6ff">@</text>
    <text x="196" y="96" fill="#39d6ff">@</text>
    <text x="204" y="96" fill="#39d6ff">@</text>
    <text x="212" y="96" fill="#39d6ff">@</text>
    <text x="220" y="96" fill="#39d6ff">#</text>
    <text x="228" y="96" fill="#39d6ff">@</text>
    <text x="236" y="96" fill="#39d6ff">@</text>
    <text x="244" y="96" fill="#39d6ff">@</text>
    <text x="252" y="96" fill="#39d6ff">@</text>
    <text x="260" y="96" fill="#39d6ff">@</text>
    <text x="268" y="96" fill="#39d6ff">@</text>
    <text x="276" y="96" fill="#39d6ff">@</text>
    <text x="284" y="96" fill="#39d6ff">#</text>
    <text x="292" y="96" fill="#39d6ff">%</text>
    <text x="300" y="96" fill="#ff4fa3">*</text>
    <text x="308" y="96" fill="#ff4fa3">;</text>
    <text x="316" y="96" fill="#ff4fa3">;</text>
    <text x="324" y="96" fill="#ffd166">,</text>
    <text x="100" y="112" fill="#ffd166">,</text>
    <text x="108" y="112" fill="#e6edf3">+</text>
    <text x="116" y="112" fill="#39d6ff">%</text>
    <text x="124" y="112" fill="#39d6ff">@</text>
    <text x="132" y="112" fill="#39d6ff">@</text>
    <text x="140" y="112" fill="#39d6ff">@</text>
    <text x="148" y="112" fill="#39d6ff">@</text>
    <text x="156" y="112" fill="#39d6ff">@</text>
    <text x="164" y="112" fill="#39d6ff">@</text>
    <text x="172" y="112" fill="#39d6ff">#</text>
    <text x="180" y="112" fill="#39d6ff">#</text>
    <text x="188" y="112" fill="#39d6ff">#</text>
    <text x="196" y="112" fill="#39d6ff">#</text>
    <text x="204" y="112" fill="#39d6ff">#</text>
    <text x="212" y="112" fill="#39d6ff">#</text>
    <text x="220" y="112" fill="#39d6ff">@</text>
    <text x="228" y="112" fill="#39d6ff">#</text>
    <text x="236" y="112" fill="#39d6ff">#</text>
    <text x="244" y="112" fill="#39d6ff">#</text>
    <text x="252" y="112" fill="#39d6ff">#</text>
    <text x="260" y="112" fill="#39d6ff">S</text>
    <text x="268" y="112" fill="#39d6ff">@</text>
    <text x="276" y="112" fill="#39d6ff">@</text>
    <text x="284" y="112" fill="#39d6ff">#</text>
    <text x="292" y="112" fill="#39d6ff">%</text>
    <text x="300" y="112" fill="#39d6ff">%</text>
    <text x="308" y="112" fill="#39d6ff">#</text>
    <text x="316" y="112" fill="#39d6ff">@</text>
    <text x="324" y="112" fill="#39d6ff">@</text>
    <text x="332" y="112" fill="#39d6ff">S</text>
    <text x="340" y="112" fill="#ff4fa3">+</text>
    <text x="348" y="112" fill="#ffd166">:</text>
    <text x="84" y="128" fill="#ffd166">;</text>
    <text x="92" y="128" fill="#39d6ff">%</text>
    <text x="100" y="128" fill="#39d6ff">@</text>
    <text x="108" y="128" fill="#39d6ff">@</text>
    <text x="116" y="128" fill="#39d6ff">@</text>
    <text x="124" y="128" fill="#39d6ff">@</text>
    <text x="132" y="128" fill="#39d6ff">#</text>
    <text x="140" y="128" fill="#39d6ff">#</text>
    <text x="148" y="128" fill="#39d6ff">@</text>
    <text x="156" y="128" fill="#39d6ff">@</text>
    <text x="164" y="128" fill="#39d6ff">@</text>
    <text x="172" y="128" fill="#39d6ff">@</text>
    <text x="180" y="128" fill="#39d6ff">@</text>
    <text x="188" y="128" fill="#39d6ff">@</text>
    <text x="196" y="128" fill="#39d6ff">#</text>
    <text x="204" y="128" fill="#39d6ff">?</text>
    <text x="212" y="128" fill="#39d6ff">?</text>
    <text x="220" y="128" fill="#39d6ff">?</text>
    <text x="228" y="128" fill="#39d6ff">%</text>
    <text x="236" y="128" fill="#39d6ff">%</text>
    <text x="244" y="128" fill="#39d6ff">?</text>
    <text x="252" y="128" fill="#ff4fa3">*</text>
    <text x="260" y="128" fill="#ff4fa3">*</text>
    <text x="268" y="128" fill="#39d6ff">?</text>
    <text x="276" y="128" fill="#39d6ff">S</text>
    <text x="284" y="128" fill="#39d6ff">#</text>
    <text x="292" y="128" fill="#39d6ff">?</text>
    <text x="300" y="128" fill="#39d6ff">?</text>
    <text x="308" y="128" fill="#39d6ff">%</text>
    <text x="316" y="128" fill="#39d6ff">?</text>
    <text x="324" y="128" fill="#39d6ff">?</text>
    <text x="332" y="128" fill="#39d6ff">S</text>
    <text x="340" y="128" fill="#39d6ff">#</text>
    <text x="348" y="128" fill="#39d6ff">%</text>
    <text x="356" y="128" fill="#ff4fa3">*</text>
    <text x="364" y="128" fill="#ffd166">:</text>
    <text x="68" y="144" fill="#ffd166">;</text>
    <text x="76" y="144" fill="#39d6ff">S</text>
    <text x="84" y="144" fill="#39d6ff">@</text>
    <text x="92" y="144" fill="#39d6ff">@</text>
    <text x="100" y="144" fill="#39d6ff">@</text>
    <text x="108" y="144" fill="#39d6ff">#</text>
    <text x="116" y="144" fill="#39d6ff">#</text>
    <text x="124" y="144" fill="#39d6ff">#</text>
    <text x="132" y="144" fill="#39d6ff">#</text>
    <text x="140" y="144" fill="#39d6ff">@</text>
    <text x="148" y="144" fill="#39d6ff">@</text>
    <text x="156" y="144" fill="#39d6ff">#</text>
    <text x="164" y="144" fill="#39d6ff">S</text>
    <text x="172" y="144" fill="#39d6ff">%</text>
    <text x="180" y="144" fill="#39d6ff">S</text>
    <text x="188" y="144" fill="#39d6ff">%</text>
    <text x="196" y="144" fill="#e6edf3">+</text>
    <text x="204" y="144" fill="#e6edf3">+</text>
    <text x="212" y="144" fill="#e6edf3">+</text>
    <text x="220" y="144" fill="#e6edf3">;</text>
    <text x="228" y="144" fill="#ff4fa3">;</text>
    <text x="236" y="144" fill="#ff4fa3">;</text>
    <text x="244" y="144" fill="#ffd166">:</text>
    <text x="252" y="144" fill="#ffd166">:</text>
    <text x="260" y="144" fill="#ff4fa3">;</text>
    <text x="268" y="144" fill="#ff4fa3">+</text>
    <text x="276" y="144" fill="#ff4fa3">+</text>
    <text x="284" y="144" fill="#ff4fa3">*</text>
    <text x="292" y="144" fill="#39d6ff">?</text>
    <text x="300" y="144" fill="#39d6ff">?</text>
    <text x="308" y="144" fill="#39d6ff">?</text>
    <text x="316" y="144" fill="#39d6ff">?</text>
    <text x="324" y="144" fill="#39d6ff">%</text>
    <text x="332" y="144" fill="#39d6ff">%</text>
    <text x="340" y="144" fill="#39d6ff">?</text>
    <text x="348" y="144" fill="#ff4fa3">*</text>
    <text x="356" y="144" fill="#ff4fa3">*</text>
    <text x="364" y="144" fill="#ff4fa3">+</text>
    <text x="372" y="144" fill="#ff4fa3">;</text>
    <text x="52" y="160" fill="#ffd166">.</text>
    <text x="60" y="160" fill="#39d6ff">?</text>
    <text x="68" y="160" fill="#39d6ff">@</text>
    <text x="76" y="160" fill="#39d6ff">@</text>
    <text x="84" y="160" fill="#39d6ff">#</text>
    <text x="92" y="160" fill="#39d6ff">@</text>
    <text x="100" y="160" fill="#39d6ff">@</text>
    <text x="108" y="160" fill="#39d6ff">@</text>
    <text x="116" y="160" fill="#39d6ff">@</text>
    <text x="124" y="160" fill="#39d6ff">#</text>
    <text x="132" y="160" fill="#39d6ff">@</text>
    <text x="140" y="160" fill="#39d6ff">@</text>
    <text x="148" y="160" fill="#39d6ff">@</text>
    <text x="156" y="160" fill="#39d6ff">S</text>
    <text x="164" y="160" fill="#39d6ff">?</text>
    <text x="172" y="160" fill="#e6edf3">*</text>
    <text x="180" y="160" fill="#e6edf3">+</text>
    <text x="188" y="160" fill="#e6edf3">+</text>
    <text x="196" y="160" fill="#ffd166">:</text>
    <text x="204" y="160" fill="#ffd166">:</text>
    <text x="212" y="160" fill="#ffd166">:</text>
    <text x="220" y="160" fill="#ffd166">:</text>
    <text x="228" y="160" fill="#ffd166">:</text>
    <text x="236" y="160" fill="#ffd166">:</text>
    <text x="244" y="160" fill="#ffd166">,</text>
    <text x="252" y="160" fill="#ffd166">,</text>
    <text x="260" y="160" fill="#ffd166">,</text>
    <text x="268" y="160" fill="#ffd166">:</text>
    <text x="276" y="160" fill="#ffd166">:</text>
    <text x="284" y="160" fill="#ffd166">:</text>
    <text x="292" y="160" fill="#ffd166">:</text>
    <text x="300" y="160" fill="#ff4fa3">+</text>
    <text x="308" y="160" fill="#ff4fa3">*</text>
    <text x="316" y="160" fill="#39d6ff">?</text>
    <text x="324" y="160" fill="#39d6ff">S</text>
    <text x="332" y="160" fill="#39d6ff">%</text>
    <text x="340" y="160" fill="#39d6ff">?</text>
    <text x="348" y="160" fill="#ff4fa3">*</text>
    <text x="356" y="160" fill="#ff4fa3">+</text>
    <text x="364" y="160" fill="#ff4fa3">+</text>
    <text x="372" y="160" fill="#ff4fa3">;</text>
    <text x="44" y="176" fill="#ffd166">,</text>
    <text x="52" y="176" fill="#39d6ff">S</text>
    <text x="60" y="176" fill="#39d6ff">@</text>
    <text x="68" y="176" fill="#39d6ff">#</text>
    <text x="76" y="176" fill="#39d6ff">@</text>
    <text x="84" y="176" fill="#39d6ff">@</text>
    <text x="92" y="176" fill="#39d6ff">@</text>
    <text x="100" y="176" fill="#39d6ff">@</text>
    <text x="108" y="176" fill="#39d6ff">@</text>
    <text x="116" y="176" fill="#39d6ff">@</text>
    <text x="124" y="176" fill="#39d6ff">@</text>
    <text x="132" y="176" fill="#39d6ff">@</text>
    <text x="140" y="176" fill="#39d6ff">@</text>
    <text x="148" y="176" fill="#39d6ff">@</text>
    <text x="156" y="176" fill="#39d6ff">#</text>
    <text x="164" y="176" fill="#39d6ff">?</text>
    <text x="172" y="176" fill="#e6edf3">+</text>
    <text x="180" y="176" fill="#e6edf3">+</text>
    <text x="188" y="176" fill="#e6edf3">+</text>
    <text x="196" y="176" fill="#e6edf3">+</text>
    <text x="204" y="176" fill="#e6edf3">+</text>
    <text x="212" y="176" fill="#e6edf3">;</text>
    <text x="220" y="176" fill="#ffd166">:</text>
    <text x="228" y="176" fill="#ffd166">,</text>
    <text x="236" y="176" fill="#ffd166">.</text>
    <text x="268" y="176" fill="#ffd166">,</text>
    <text x="276" y="176" fill="#ff4fa3">;</text>
    <text x="284" y="176" fill="#ff4fa3">;</text>
    <text x="292" y="176" fill="#ff4fa3">;</text>
    <text x="300" y="176" fill="#ffd166">;</text>
    <text x="308" y="176" fill="#ff4fa3">;</text>
    <text x="316" y="176" fill="#ff4fa3">+</text>
    <text x="324" y="176" fill="#39d6ff">*</text>
    <text x="332" y="176" fill="#39d6ff">S</text>
    <text x="340" y="176" fill="#39d6ff">%</text>
    <text x="348" y="176" fill="#39d6ff">%</text>
    <text x="356" y="176" fill="#39d6ff">?</text>
    <text x="364" y="176" fill="#ff4fa3">*</text>
    <text x="372" y="176" fill="#ff4fa3">*</text>
    <text x="44" y="192" fill="#39d6ff">?</text>
    <text x="52" y="192" fill="#39d6ff">#</text>
    <text x="60" y="192" fill="#39d6ff">#</text>
    <text x="68" y="192" fill="#39d6ff">@</text>
    <text x="76" y="192" fill="#39d6ff">@</text>
    <text x="84" y="192" fill="#39d6ff">@</text>
    <text x="92" y="192" fill="#39d6ff">@</text>
    <text x="100" y="192" fill="#39d6ff">@</text>
    <text x="108" y="192" fill="#39d6ff">@</text>
    <text x="116" y="192" fill="#39d6ff">@</text>
    <text x="124" y="192" fill="#39d6ff">@</text>
    <text x="132" y="192" fill="#39d6ff">@</text>
    <text x="140" y="192" fill="#39d6ff">@</text>
    <text x="148" y="192" fill="#39d6ff">@</text>
    <text x="156" y="192" fill="#39d6ff">?</text>
    <text x="164" y="192" fill="#e6edf3">:</text>
    <text x="172" y="192" fill="#e6edf3">:</text>
    <text x="180" y="192" fill="#e6edf3">:</text>
    <text x="188" y="192" fill="#e6edf3">;</text>
    <text x="196" y="192" fill="#e6edf3">+</text>
    <text x="204" y="192" fill="#e6edf3">*</text>
    <text x="212" y="192" fill="#e6edf3">*</text>
    <text x="220" y="192" fill="#e6edf3">;</text>
    <text x="228" y="192" fill="#e6edf3">,</text>
    <text x="268" y="192" fill="#e6edf3">:</text>
    <text x="276" y="192" fill="#ff4fa3">;</text>
    <text x="284" y="192" fill="#ff4fa3">;</text>
    <text x="292" y="192" fill="#e6edf3">;</text>
    <text x="300" y="192" fill="#e6edf3">,</text>
    <text x="316" y="192" fill="#e6edf3">,</text>
    <text x="324" y="192" fill="#ff4fa3">;</text>
    <text x="332" y="192" fill="#39d6ff">%</text>
    <text x="340" y="192" fill="#39d6ff">S</text>
    <text x="348" y="192" fill="#39d6ff">S</text>
    <text x="356" y="192" fill="#39d6ff">S</text>
    <text x="364" y="192" fill="#39d6ff">%</text>
    <text x="372" y="192" fill="#39d6ff">%</text>
    <text x="36" y="208" fill="#e6edf3">:</text>
    <text x="44" y="208" fill="#39d6ff">?</text>
    <text x="52" y="208" fill="#39d6ff">#</text>
    <text x="60" y="208" fill="#39d6ff">@</text>
    <text x="68" y="208" fill="#39d6ff">@</text>
    <text x="76" y="208" fill="#39d6ff">@</text>
    <text x="84" y="208" fill="#39d6ff">@</text>
    <text x="92" y="208" fill="#39d6ff">@</text>
    <text x="100" y="208" fill="#39d6ff">@</text>
    <text x="108" y="208" fill="#39d6ff">@</text>
    <text x="116" y="208" fill="#39d6ff">@</text>
    <text x="124" y="208" fill="#39d6ff">@</text>
    <text x="132" y="208" fill="#39d6ff">@</text>
    <text x="140" y="208" fill="#39d6ff">@</text>
    <text x="148" y="208" fill="#39d6ff">#</text>
    <text x="156" y="208" fill="#e6edf3">*</text>
    <text x="164" y="208" fill="#e6edf3">:</text>
    <text x="172" y="208" fill="#e6edf3">+</text>
    <text x="180" y="208" fill="#e6edf3">+</text>
    <text x="188" y="208" fill="#e6edf3">*</text>
    <text x="196" y="208" fill="#39d6ff">*</text>
    <text x="204" y="208" fill="#e6edf3">*</text>
    <text x="212" y="208" fill="#e6edf3">+</text>
    <text x="220" y="208" fill="#e6edf3">:</text>
    <text x="228" y="208" fill="#ffd166">.</text>
    <text x="268" y="208" fill="#e6edf3">:</text>
    <text x="276" y="208" fill="#ff4fa3">*</text>
    <text x="284" y="208" fill="#ff4fa3">*</text>
    <text x="292" y="208" fill="#ff4fa3">*</text>
    <text x="300" y="208" fill="#e6edf3">:</text>
    <text x="308" y="208" fill="#e6edf3">:</text>
    <text x="316" y="208" fill="#ffd166">.</text>
    <text x="332" y="208" fill="#ff4fa3">*</text>
    <text x="340" y="208" fill="#39d6ff">@</text>
    <text x="348" y="208" fill="#39d6ff">@</text>
    <text x="356" y="208" fill="#39d6ff">S</text>
    <text x="364" y="208" fill="#39d6ff">%</text>
    <text x="372" y="208" fill="#39d6ff">S</text>
    <text x="36" y="224" fill="#e6edf3">+</text>
    <text x="44" y="224" fill="#39d6ff">%</text>
    <text x="52" y="224" fill="#39d6ff">#</text>
    <text x="60" y="224" fill="#39d6ff">@</text>
    <text x="68" y="224" fill="#39d6ff">@</text>
    <text x="76" y="224" fill="#39d6ff">@</text>
    <text x="84" y="224" fill="#39d6ff">@</text>
    <text x="92" y="224" fill="#39d6ff">@</text>
    <text x="100" y="224" fill="#39d6ff">@</text>
    <text x="108" y="224" fill="#39d6ff">@</text>
    <text x="116" y="224" fill="#39d6ff">@</text>
    <text x="124" y="224" fill="#39d6ff">#</text>
    <text x="132" y="224" fill="#39d6ff">@</text>
    <text x="140" y="224" fill="#39d6ff">S</text>
    <text x="148" y="224" fill="#e6edf3">+</text>
    <text x="156" y="224" fill="#e6edf3">:</text>
    <text x="164" y="224" fill="#e6edf3">,</text>
    <text x="172" y="224" fill="#ffd166">.</text>
    <text x="180" y="224" fill="#ffd166">.</text>
    <text x="188" y="224" fill="#ffd166">.</text>
    <text x="196" y="224" fill="#ffd166">.</text>
    <text x="228" y="224" fill="#ffd166">.</text>
    <text x="236" y="224" fill="#ffd166">.</text>
    <text x="244" y="224" fill="#ffd166">.</text>
    <text x="252" y="224" fill="#e6edf3">:</text>
    <text x="260" y="224" fill="#ffd166">.</text>
    <text x="284" y="224" fill="#ffd166">.</text>
    <text x="292" y="224" fill="#ffd166">.</text>
    <text x="332" y="224" fill="#e6edf3">,</text>
    <text x="340" y="224" fill="#39d6ff">S</text>
    <text x="348" y="224" fill="#39d6ff">@</text>
    <text x="356" y="224" fill="#39d6ff">@</text>
    <text x="364" y="224" fill="#39d6ff">#</text>
    <text x="372" y="224" fill="#39d6ff">%</text>
    <text x="28" y="240" fill="#ffd166">.</text>
    <text x="36" y="240" fill="#e6edf3">+</text>
    <text x="44" y="240" fill="#39d6ff">?</text>
    <text x="52" y="240" fill="#39d6ff">#</text>
    <text x="60" y="240" fill="#39d6ff">@</text>
    <text x="68" y="240" fill="#39d6ff">@</text>
    <text x="76" y="240" fill="#39d6ff">@</text>
    <text x="84" y="240" fill="#39d6ff">@</text>
    <text x="92" y="240" fill="#39d6ff">@</text>
    <text x="100" y="240" fill="#39d6ff">@</text>
    <text x="108" y="240" fill="#39d6ff">@</text>
    <text x="116" y="240" fill="#39d6ff">@</text>
    <text x="124" y="240" fill="#39d6ff">@</text>
    <text x="132" y="240" fill="#39d6ff">@</text>
    <text x="140" y="240" fill="#e6edf3">*</text>
    <text x="148" y="240" fill="#e6edf3">,</text>
    <text x="156" y="240" fill="#ffd166">.</text>
    <text x="228" y="240" fill="#ff4fa3">;</text>
    <text x="236" y="240" fill="#ff4fa3">+</text>
    <text x="244" y="240" fill="#e6edf3">:</text>
    <text x="252" y="240" fill="#e6edf3">,</text>
    <text x="260" y="240" fill="#e6edf3">:</text>
    <text x="268" y="240" fill="#e6edf3">:</text>
    <text x="340" y="240" fill="#39d6ff">?</text>
    <text x="348" y="240" fill="#39d6ff">@</text>
    <text x="356" y="240" fill="#39d6ff">@</text>
    <text x="364" y="240" fill="#39d6ff">@</text>
    <text x="372" y="240" fill="#39d6ff">S</text>
    <text x="28" y="256" fill="#ffd166">.</text>
    <text x="36" y="256" fill="#e6edf3">+</text>
    <text x="44" y="256" fill="#39d6ff">?</text>
    <text x="52" y="256" fill="#39d6ff">#</text>
    <text x="60" y="256" fill="#39d6ff">@</text>
    <text x="68" y="256" fill="#39d6ff">@</text>
    <text x="76" y="256" fill="#39d6ff">@</text>
    <text x="84" y="256" fill="#39d6ff">@</text>
    <text x="92" y="256" fill="#39d6ff">@</text>
    <text x="100" y="256" fill="#39d6ff">@</text>
    <text x="108" y="256" fill="#39d6ff">@</text>
    <text x="116" y="256" fill="#39d6ff">@</text>
    <text x="124" y="256" fill="#39d6ff">@</text>
    <text x="132" y="256" fill="#39d6ff">@</text>
    <text x="140" y="256" fill="#e6edf3">*</text>
    <text x="148" y="256" fill="#e6edf3">:</text>
    <text x="156" y="256" fill="#ffd166">,</text>
    <text x="164" y="256" fill="#ffd166">.</text>
    <text x="220" y="256" fill="#e6edf3">,</text>
    <text x="228" y="256" fill="#e6edf3">:</text>
    <text x="236" y="256" fill="#e6edf3">:</text>
    <text x="244" y="256" fill="#ff4fa3">+</text>
    <text x="252" y="256" fill="#ff4fa3">+</text>
    <text x="260" y="256" fill="#e6edf3">:</text>
    <text x="268" y="256" fill="#e6edf3">,</text>
    <text x="340" y="256" fill="#39d6ff">%</text>
    <text x="348" y="256" fill="#39d6ff">@</text>
    <text x="356" y="256" fill="#39d6ff">@</text>
    <text x="364" y="256" fill="#39d6ff">@</text>
    <text x="372" y="256" fill="#39d6ff">#</text>
    <text x="36" y="272" fill="#e6edf3">;</text>
    <text x="44" y="272" fill="#39d6ff">%</text>
    <text x="52" y="272" fill="#39d6ff">#</text>
    <text x="60" y="272" fill="#39d6ff">@</text>
    <text x="68" y="272" fill="#39d6ff">@</text>
    <text x="76" y="272" fill="#39d6ff">@</text>
    <text x="84" y="272" fill="#39d6ff">@</text>
    <text x="92" y="272" fill="#39d6ff">@</text>
    <text x="100" y="272" fill="#39d6ff">@</text>
    <text x="108" y="272" fill="#39d6ff">@</text>
    <text x="116" y="272" fill="#39d6ff">@</text>
    <text x="124" y="272" fill="#39d6ff">#</text>
    <text x="132" y="272" fill="#39d6ff">S</text>
    <text x="140" y="272" fill="#39d6ff">?</text>
    <text x="148" y="272" fill="#e6edf3">;</text>
    <text x="156" y="272" fill="#e6edf3">,</text>
    <text x="164" y="272" fill="#ffd166">,</text>
    <text x="172" y="272" fill="#ffd166">.</text>
    <text x="196" y="272" fill="#ffd166">.</text>
    <text x="204" y="272" fill="#e6edf3">,</text>
    <text x="212" y="272" fill="#e6edf3">,</text>
    <text x="220" y="272" fill="#e6edf3">:</text>
    <text x="228" y="272" fill="#e6edf3">;</text>
    <text x="236" y="272" fill="#ff4fa3">+</text>
    <text x="244" y="272" fill="#ff4fa3">*</text>
    <text x="252" y="272" fill="#ff4fa3">*</text>
    <text x="260" y="272" fill="#ff4fa3">;</text>
    <text x="268" y="272" fill="#e6edf3">,</text>
    <text x="276" y="272" fill="#ffd166">.</text>
    <text x="332" y="272" fill="#e6edf3">,</text>
    <text x="340" y="272" fill="#39d6ff">%</text>
    <text x="348" y="272" fill="#39d6ff">S</text>
    <text x="356" y="272" fill="#39d6ff">@</text>
    <text x="364" y="272" fill="#39d6ff">#</text>
    <text x="372" y="272" fill="#39d6ff">@</text>
    <text x="36" y="288" fill="#e6edf3">,</text>
    <text x="44" y="288" fill="#39d6ff">%</text>
    <text x="52" y="288" fill="#39d6ff">#</text>
    <text x="60" y="288" fill="#39d6ff">@</text>
    <text x="68" y="288" fill="#39d6ff">@</text>
    <text x="76" y="288" fill="#39d6ff">@</text>
    <text x="84" y="288" fill="#39d6ff">@</text>
    <text x="92" y="288" fill="#39d6ff">@</text>
    <text x="100" y="288" fill="#39d6ff">@</text>
    <text x="108" y="288" fill="#39d6ff">@</text>
    <text x="116" y="288" fill="#39d6ff">@</text>
    <text x="124" y="288" fill="#39d6ff">S</text>
    <text x="132" y="288" fill="#e6edf3">*</text>
    <text x="140" y="288" fill="#39d6ff">?</text>
    <text x="148" y="288" fill="#e6edf3">+</text>
    <text x="156" y="288" fill="#e6edf3">:</text>
    <text x="164" y="288" fill="#e6edf3">,</text>
    <text x="172" y="288" fill="#e6edf3">,</text>
    <text x="180" y="288" fill="#ffd166">.</text>
    <text x="188" y="288" fill="#e6edf3">,</text>
    <text x="196" y="288" fill="#e6edf3">:</text>
    <text x="204" y="288" fill="#e6edf3">;</text>
    <text x="212" y="288" fill="#e6edf3">:</text>
    <text x="220" y="288" fill="#e6edf3">;</text>
    <text x="228" y="288" fill="#ff4fa3">;</text>
    <text x="236" y="288" fill="#ff4fa3">+</text>
    <text x="244" y="288" fill="#ff4fa3">*</text>
    <text x="252" y="288" fill="#ff4fa3">+</text>
    <text x="260" y="288" fill="#ff4fa3">;</text>
    <text x="268" y="288" fill="#e6edf3">,</text>
    <text x="276" y="288" fill="#e6edf3">,</text>
    <text x="284" y="288" fill="#ffd166">.</text>
    <text x="332" y="288" fill="#e6edf3">,</text>
    <text x="340" y="288" fill="#e6edf3">;</text>
    <text x="348" y="288" fill="#39d6ff">%</text>
    <text x="356" y="288" fill="#39d6ff">@</text>
    <text x="364" y="288" fill="#39d6ff">@</text>
    <text x="372" y="288" fill="#39d6ff">#</text>
    <text x="44" y="304" fill="#e6edf3">;</text>
    <text x="52" y="304" fill="#39d6ff">@</text>
    <text x="60" y="304" fill="#39d6ff">@</text>
    <text x="68" y="304" fill="#39d6ff">@</text>
    <text x="76" y="304" fill="#39d6ff">@</text>
    <text x="84" y="304" fill="#39d6ff">@</text>
    <text x="92" y="304" fill="#39d6ff">@</text>
    <text x="100" y="304" fill="#39d6ff">@</text>
    <text x="108" y="304" fill="#39d6ff">@</text>
    <text x="116" y="304" fill="#39d6ff">@</text>
    <text x="124" y="304" fill="#39d6ff">@</text>
    <text x="132" y="304" fill="#39d6ff">#</text>
    <text x="140" y="304" fill="#39d6ff">@</text>
    <text x="148" y="304" fill="#39d6ff">%</text>
    <text x="156" y="304" fill="#e6edf3">+</text>
    <text x="164" y="304" fill="#e6edf3">:</text>
    <text x="172" y="304" fill="#e6edf3">:</text>
    <text x="180" y="304" fill="#e6edf3">,</text>
    <text x="188" y="304" fill="#e6edf3">:</text>
    <text x="196" y="304" fill="#e6edf3">:</text>
    <text x="204" y="304" fill="#e6edf3">,</text>
    <text x="212" y="304" fill="#e6edf3">:</text>
    <text x="220" y="304" fill="#e6edf3">:</text>
    <text x="228" y="304" fill="#e6edf3">;</text>
    <text x="236" y="304" fill="#ff4fa3">;</text>
    <text x="244" y="304" fill="#ff4fa3">+</text>
    <text x="252" y="304" fill="#ff4fa3">+</text>
    <text x="260" y="304" fill="#e6edf3">:</text>
    <text x="268" y="304" fill="#ffd166">.</text>
    <text x="324" y="304" fill="#e6edf3">.</text>
    <text x="332" y="304" fill="#39d6ff">?</text>
    <text x="340" y="304" fill="#39d6ff">S</text>
    <text x="348" y="304" fill="#39d6ff">@</text>
    <text x="356" y="304" fill="#39d6ff">#</text>
    <text x="364" y="304" fill="#39d6ff">#</text>
    <text x="372" y="304" fill="#39d6ff">S</text>
    <text x="52" y="320" fill="#e6edf3">;</text>
    <text x="60" y="320" fill="#39d6ff">@</text>
    <text x="68" y="320" fill="#39d6ff">@</text>
    <text x="76" y="320" fill="#39d6ff">#</text>
    <text x="84" y="320" fill="#39d6ff">@</text>
    <text x="92" y="320" fill="#39d6ff">@</text>
    <text x="100" y="320" fill="#39d6ff">@</text>
    <text x="108" y="320" fill="#39d6ff">@</text>
    <text x="116" y="320" fill="#39d6ff">@</text>
    <text x="124" y="320" fill="#39d6ff">@</text>
    <text x="132" y="320" fill="#39d6ff">@</text>
    <text x="140" y="320" fill="#39d6ff">@</text>
    <text x="148" y="320" fill="#39d6ff">@</text>
    <text x="156" y="320" fill="#39d6ff">%</text>
    <text x="164" y="320" fill="#e6edf3">*</text>
    <text x="172" y="320" fill="#e6edf3">;</text>
    <text x="180" y="320" fill="#e6edf3">:</text>
    <text x="188" y="320" fill="#e6edf3">:</text>
    <text x="196" y="320" fill="#e6edf3">:</text>
    <text x="204" y="320" fill="#e6edf3">:</text>
    <text x="212" y="320" fill="#e6edf3">;</text>
    <text x="220" y="320" fill="#e6edf3">;</text>
    <text x="228" y="320" fill="#ff4fa3">+</text>
    <text x="236" y="320" fill="#ff4fa3">+</text>
    <text x="244" y="320" fill="#ff4fa3">*</text>
    <text x="252" y="320" fill="#ff4fa3">*</text>
    <text x="260" y="320" fill="#ff4fa3">;</text>
    <text x="268" y="320" fill="#e6edf3">:</text>
    <text x="276" y="320" fill="#e6edf3">,</text>
    <text x="284" y="320" fill="#ffd166">.</text>
    <text x="316" y="320" fill="#e6edf3">,</text>
    <text x="324" y="320" fill="#39d6ff">?</text>
    <text x="332" y="320" fill="#39d6ff">@</text>
    <text x="340" y="320" fill="#39d6ff">@</text>
    <text x="348" y="320" fill="#39d6ff">@</text>
    <text x="356" y="320" fill="#39d6ff">#</text>
    <text x="364" y="320" fill="#39d6ff">S</text>
    <text x="372" y="320" fill="#39d6ff">%</text>
    <text x="60" y="336" fill="#e6edf3">,</text>
    <text x="68" y="336" fill="#39d6ff">%</text>
    <text x="76" y="336" fill="#39d6ff">@</text>
    <text x="84" y="336" fill="#39d6ff">@</text>
    <text x="92" y="336" fill="#39d6ff">@</text>
    <text x="100" y="336" fill="#39d6ff">#</text>
    <text x="108" y="336" fill="#39d6ff">@</text>
    <text x="116" y="336" fill="#39d6ff">@</text>
    <text x="124" y="336" fill="#39d6ff">@</text>
    <text x="132" y="336" fill="#39d6ff">@</text>
    <text x="140" y="336" fill="#39d6ff">@</text>
    <text x="148" y="336" fill="#39d6ff">@</text>
    <text x="156" y="336" fill="#39d6ff">@</text>
    <text x="164" y="336" fill="#39d6ff">#</text>
    <text x="172" y="336" fill="#39d6ff">%</text>
    <text x="180" y="336" fill="#39d6ff">?</text>
    <text x="188" y="336" fill="#e6edf3">*</text>
    <text x="196" y="336" fill="#e6edf3">+</text>
    <text x="204" y="336" fill="#e6edf3">;</text>
    <text x="212" y="336" fill="#e6edf3">;</text>
    <text x="220" y="336" fill="#e6edf3">;</text>
    <text x="228" y="336" fill="#ff4fa3">;</text>
    <text x="236" y="336" fill="#ff4fa3">;</text>
    <text x="244" y="336" fill="#e6edf3">:</text>
    <text x="252" y="336" fill="#e6edf3">;</text>
    <text x="260" y="336" fill="#e6edf3">:</text>
    <text x="268" y="336" fill="#e6edf3">,</text>
    <text x="292" y="336" fill="#ffd166">.</text>
    <text x="300" y="336" fill="#e6edf3">:</text>
    <text x="308" y="336" fill="#ff4fa3">+</text>
    <text x="316" y="336" fill="#39d6ff">#</text>
    <text x="324" y="336" fill="#39d6ff">@</text>
    <text x="332" y="336" fill="#39d6ff">#</text>
    <text x="340" y="336" fill="#39d6ff">@</text>
    <text x="348" y="336" fill="#39d6ff">@</text>
    <text x="356" y="336" fill="#39d6ff">#</text>
    <text x="364" y="336" fill="#39d6ff">S</text>
    <text x="372" y="336" fill="#39d6ff">%</text>
    <text x="76" y="352" fill="#e6edf3">;</text>
    <text x="84" y="352" fill="#39d6ff">%</text>
    <text x="92" y="352" fill="#39d6ff">@</text>
    <text x="100" y="352" fill="#39d6ff">@</text>
    <text x="108" y="352" fill="#39d6ff">@</text>
    <text x="116" y="352" fill="#39d6ff">@</text>
    <text x="124" y="352" fill="#39d6ff">#</text>
    <text x="132" y="352" fill="#39d6ff">#</text>
    <text x="140" y="352" fill="#39d6ff">@</text>
    <text x="148" y="352" fill="#39d6ff">@</text>
    <text x="156" y="352" fill="#39d6ff">#</text>
    <text x="164" y="352" fill="#39d6ff">#</text>
    <text x="172" y="352" fill="#39d6ff">S</text>
    <text x="180" y="352" fill="#39d6ff">S</text>
    <text x="188" y="352" fill="#39d6ff">%</text>
    <text x="196" y="352" fill="#39d6ff">%</text>
    <text x="204" y="352" fill="#39d6ff">?</text>
    <text x="212" y="352" fill="#e6edf3">*</text>
    <text x="220" y="352" fill="#e6edf3">+</text>
    <text x="228" y="352" fill="#ff4fa3">;</text>
    <text x="236" y="352" fill="#ff4fa3">;</text>
    <text x="244" y="352" fill="#e6edf3">:</text>
    <text x="252" y="352" fill="#e6edf3">:</text>
    <text x="260" y="352" fill="#e6edf3">:</text>
    <text x="268" y="352" fill="#e6edf3">:</text>
    <text x="276" y="352" fill="#e6edf3">:</text>
    <text x="284" y="352" fill="#ff4fa3">+</text>
    <text x="292" y="352" fill="#39d6ff">?</text>
    <text x="300" y="352" fill="#39d6ff">%</text>
    <text x="308" y="352" fill="#39d6ff">#</text>
    <text x="316" y="352" fill="#39d6ff">@</text>
    <text x="324" y="352" fill="#39d6ff">#</text>
    <text x="332" y="352" fill="#39d6ff">#</text>
    <text x="340" y="352" fill="#39d6ff">#</text>
    <text x="348" y="352" fill="#39d6ff">@</text>
    <text x="356" y="352" fill="#39d6ff">@</text>
    <text x="364" y="352" fill="#39d6ff">#</text>
    <text x="372" y="352" fill="#39d6ff">?</text>
    <text x="92" y="368" fill="#e6edf3">,</text>
    <text x="100" y="368" fill="#e6edf3">+</text>
    <text x="108" y="368" fill="#39d6ff">%</text>
    <text x="116" y="368" fill="#39d6ff">@</text>
    <text x="124" y="368" fill="#39d6ff">@</text>
    <text x="132" y="368" fill="#39d6ff">@</text>
    <text x="140" y="368" fill="#39d6ff">@</text>
    <text x="148" y="368" fill="#39d6ff">@</text>
    <text x="156" y="368" fill="#39d6ff">#</text>
    <text x="164" y="368" fill="#39d6ff">S</text>
    <text x="172" y="368" fill="#39d6ff">S</text>
    <text x="180" y="368" fill="#39d6ff">%</text>
    <text x="188" y="368" fill="#39d6ff">%</text>
    <text x="196" y="368" fill="#39d6ff">%</text>
    <text x="204" y="368" fill="#39d6ff">%</text>
    <text x="212" y="368" fill="#39d6ff">?</text>
    <text x="220" y="368" fill="#39d6ff">?</text>
    <text x="228" y="368" fill="#ff4fa3">*</text>
    <text x="236" y="368" fill="#ff4fa3">+</text>
    <text x="244" y="368" fill="#ff4fa3">+</text>
    <text x="252" y="368" fill="#ff4fa3">+</text>
    <text x="260" y="368" fill="#ff4fa3">+</text>
    <text x="268" y="368" fill="#ff4fa3">+</text>
    <text x="276" y="368" fill="#39d6ff">?</text>
    <text x="284" y="368" fill="#39d6ff">?</text>
    <text x="292" y="368" fill="#39d6ff">?</text>
    <text x="300" y="368" fill="#39d6ff">?</text>
    <text x="308" y="368" fill="#39d6ff">#</text>
    <text x="316" y="368" fill="#39d6ff">@</text>
    <text x="324" y="368" fill="#39d6ff">@</text>
    <text x="332" y="368" fill="#39d6ff">@</text>
    <text x="340" y="368" fill="#39d6ff">@</text>
    <text x="348" y="368" fill="#39d6ff">@</text>
    <text x="356" y="368" fill="#39d6ff">%</text>
    <text x="364" y="368" fill="#ff4fa3">;</text>
    <text x="28" y="384" fill="#39d6ff">S</text>
    <text x="36" y="384" fill="#e6edf3">;</text>
    <text x="116" y="384" fill="#e6edf3">,</text>
    <text x="124" y="384" fill="#e6edf3">;</text>
    <text x="132" y="384" fill="#e6edf3">*</text>
    <text x="140" y="384" fill="#39d6ff">%</text>
    <text x="148" y="384" fill="#39d6ff">#</text>
    <text x="156" y="384" fill="#39d6ff">@</text>
    <text x="164" y="384" fill="#39d6ff">@</text>
    <text x="172" y="384" fill="#39d6ff">@</text>
    <text x="180" y="384" fill="#39d6ff">#</text>
    <text x="188" y="384" fill="#39d6ff">S</text>
    <text x="196" y="384" fill="#39d6ff">%</text>
    <text x="204" y="384" fill="#39d6ff">?</text>
    <text x="212" y="384" fill="#39d6ff">*</text>
    <text x="220" y="384" fill="#e6edf3">*</text>
    <text x="228" y="384" fill="#ff4fa3">*</text>
    <text x="236" y="384" fill="#ff4fa3">*</text>
    <text x="244" y="384" fill="#ff4fa3">*</text>
    <text x="252" y="384" fill="#ff4fa3">*</text>
    <text x="260" y="384" fill="#39d6ff">?</text>
    <text x="268" y="384" fill="#39d6ff">?</text>
    <text x="276" y="384" fill="#39d6ff">%</text>
    <text x="284" y="384" fill="#39d6ff">%</text>
    <text x="292" y="384" fill="#39d6ff">%</text>
    <text x="300" y="384" fill="#39d6ff">#</text>
    <text x="308" y="384" fill="#39d6ff">@</text>
    <text x="316" y="384" fill="#39d6ff">#</text>
    <text x="324" y="384" fill="#39d6ff">%</text>
    <text x="332" y="384" fill="#ff4fa3">*</text>
    <text x="340" y="384" fill="#ff4fa3">;</text>
    <text x="348" y="384" fill="#e6edf3">,</text>
    <text x="28" y="400" fill="#e6edf3">+</text>
    <text x="36" y="400" fill="#39d6ff">@</text>
    <text x="44" y="400" fill="#39d6ff">@</text>
    <text x="52" y="400" fill="#e6edf3">*</text>
    <text x="60" y="400" fill="#e6edf3">,</text>
    <text x="148" y="400" fill="#ffd166">.</text>
    <text x="156" y="400" fill="#e6edf3">,</text>
    <text x="164" y="400" fill="#e6edf3">:</text>
    <text x="172" y="400" fill="#e6edf3">;</text>
    <text x="180" y="400" fill="#e6edf3">+</text>
    <text x="188" y="400" fill="#39d6ff">*</text>
    <text x="196" y="400" fill="#e6edf3">+</text>
    <text x="204" y="400" fill="#e6edf3">:</text>
    <text x="212" y="400" fill="#e6edf3">;</text>
    <text x="220" y="400" fill="#e6edf3">:</text>
    <text x="228" y="400" fill="#ff4fa3">+</text>
    <text x="236" y="400" fill="#ff4fa3">*</text>
    <text x="244" y="400" fill="#ff4fa3">*</text>
    <text x="252" y="400" fill="#ff4fa3">*</text>
    <text x="260" y="400" fill="#ff4fa3">*</text>
    <text x="268" y="400" fill="#ff4fa3">+</text>
    <text x="276" y="400" fill="#ff4fa3">+</text>
    <text x="284" y="400" fill="#ff4fa3">;</text>
    <text x="292" y="400" fill="#e6edf3">;</text>
    <text x="300" y="400" fill="#e6edf3">:</text>
    <text x="308" y="400" fill="#e6edf3">,</text>
    <text x="316" y="400" fill="#ffd166">.</text>
    <text x="36" y="416" fill="#e6edf3">,</text>
    <text x="44" y="416" fill="#39d6ff">*</text>
    <text x="52" y="416" fill="#39d6ff">@</text>
    <text x="60" y="416" fill="#39d6ff">@</text>
    <text x="68" y="416" fill="#39d6ff">S</text>
    <text x="76" y="416" fill="#e6edf3">*</text>
    <text x="84" y="416" fill="#e6edf3">:</text>
    <text x="92" y="416" fill="#ffd166">.</text>
    <text x="52" y="432" fill="#e6edf3">:</text>
    <text x="60" y="432" fill="#39d6ff">?</text>
    <text x="68" y="432" fill="#39d6ff">@</text>
    <text x="76" y="432" fill="#39d6ff">@</text>
    <text x="84" y="432" fill="#39d6ff">@</text>
    <text x="92" y="432" fill="#39d6ff">#</text>
    <text x="100" y="432" fill="#39d6ff">%</text>
    <text x="108" y="432" fill="#e6edf3">+</text>
    <text x="116" y="432" fill="#e6edf3">:</text>
  </g>
  <g>
    <text x="420" y="46" fill="#c9d1d9"><tspan fill="#39d6ff">agustin</tspan>@github<tspan fill="#6e7681"> --------------------------------------</tspan></text>
    <text x="420" y="76" fill="#c9d1d9"><tspan fill="#6e7681">. </tspan><tspan fill="#ffa657">Name</tspan><tspan>:</tspan><tspan fill="#6e7681"> ............... </tspan><tspan fill="#a5d6ff">Agustin Caceres</tspan></text>
    <text x="420" y="100" fill="#c9d1d9"><tspan fill="#6e7681">. </tspan><tspan fill="#ffa657">Focus</tspan><tspan>:</tspan><tspan fill="#6e7681"> .. </tspan><tspan fill="#a5d6ff">Data Governance, Backend &amp; AI</tspan></text>
    <text x="420" y="124" fill="#c9d1d9"><tspan fill="#6e7681">. </tspan><tspan fill="#ffa657">Builder</tspan><tspan>:</tspan><tspan fill="#6e7681"> .................... </tspan><tspan fill="#a5d6ff">Bedosbe</tspan></text>
    <text x="420" y="148" fill="#c9d1d9"><tspan fill="#6e7681">. </tspan><tspan fill="#ffa657">Builder</tspan><tspan>:</tspan><tspan fill="#6e7681"> ...................... </tspan><tspan fill="#a5d6ff">iAlex</tspan></text>
    <text x="420" y="172" fill="#c9d1d9"><tspan fill="#6e7681">. </tspan><tspan fill="#ffa657">Intersection</tspan><tspan>:</tspan><tspan fill="#6e7681"> .. </tspan><tspan fill="#a5d6ff">Technology, business &amp; law</tspan></text>
    <text x="420" y="204" fill="#c9d1d9"><tspan fill="#6e7681">. </tspan><tspan fill="#ffa657">Palette</tspan>: <tspan fill="#39d6ff">cyan</tspan> <tspan fill="#ff4fa3">magenta</tspan> <tspan fill="#ffd166">amber</tspan></text>
    <text x="420" y="248" fill="#c9d1d9"><tspan>Projects</tspan><tspan fill="#6e7681"> ----------------------------------</tspan></text>
    <text x="420" y="278" fill="#c9d1d9"><tspan fill="#6e7681">. </tspan><tspan fill="#ffa657">Bedosbe</tspan><tspan>:</tspan><tspan fill="#6e7681"> ............... </tspan><tspan fill="#a5d6ff">B2B commerce</tspan></text>
    <text x="420" y="302" fill="#c9d1d9"><tspan fill="#6e7681">. </tspan><tspan fill="#ffa657">iAlex</tspan><tspan>:</tspan><tspan fill="#6e7681"> ..................... </tspan><tspan fill="#a5d6ff">Legal AI</tspan></text>
    <text x="420" y="326" fill="#c9d1d9"><tspan fill="#6e7681">. </tspan><tspan fill="#ffa657">Mode</tspan><tspan>:</tspan><tspan fill="#6e7681"> ........... </tspan><tspan fill="#a5d6ff">Ship, learn, repeat</tspan></text>
    <text x="420" y="370" fill="#c9d1d9"><tspan>GitHub</tspan><tspan fill="#6e7681"> ----------------------------------</tspan></text>
    <text x="420" y="400" fill="#c9d1d9"><tspan fill="#6e7681">. </tspan><tspan fill="#ffa657">Repos</tspan><tspan>:</tspan><tspan id="repo_data_dots" fill="#6e7681"> ............ </tspan><tspan id="repo_data" fill="#a5d6ff">9</tspan></text>
    <text x="630" y="400" fill="#c9d1d9"><tspan fill="#6e7681">. </tspan><tspan fill="#ffa657">Stars</tspan><tspan>:</tspan><tspan id="star_data_dots" fill="#6e7681"> ............ </tspan><tspan id="star_data" fill="#a5d6ff">0</tspan></text>
    <text x="420" y="424" fill="#c9d1d9"><tspan fill="#6e7681">. </tspan><tspan fill="#ffa657">Followers</tspan><tspan>:</tspan><tspan id="follower_data_dots" fill="#6e7681"> ....... </tspan><tspan id="follower_data" fill="#a5d6ff">11</tspan></text>
    <text x="630" y="424" fill="#c9d1d9"><tspan fill="#6e7681">. </tspan><tspan fill="#ffa657">Following</tspan><tspan>:</tspan><tspan id="following_data_dots" fill="#6e7681"> ....... </tspan><tspan id="following_data" fill="#a5d6ff">11</tspan></text>
    <text x="420" y="448" fill="#c9d1d9"><tspan fill="#6e7681">. </tspan><tspan fill="#ffa657">Since</tspan><tspan>:</tspan><tspan id="since_data_dots" fill="#6e7681"> ......... </tspan><tspan id="since_data" fill="#a5d6ff">2023</tspan></text>
    <text x="420" y="482" fill="#c9d1d9"><tspan>Contact</tspan><tspan fill="#6e7681"> ----------------------------------</tspan></text>
    <text x="420" y="512" fill="#c9d1d9"><tspan fill="#6e7681">. </tspan><tspan fill="#ffa657">Social</tspan><tspan>:</tspan><tspan fill="#6e7681"> .... </tspan><tspan fill="#a5d6ff">LinkedIn / X / Instagram</tspan></text>
  </g>
</svg>
