<?xml version="1.0" encoding="UTF-8"?>
<svg xmlns="http://www.w3.org/2000/svg" width="985px" height="530px" viewBox="0 0 985 530" role="img" aria-labelledby="title desc">
  <title id="title">Agustin Caceres GitHub profile README</title>
  <desc id="desc">Terminal style profile card with ASCII portrait and profile data.</desc>
  <style>
    text { font-family: Consolas, 'Liberation Mono', monospace; font-size: 16px; font-weight: 700; white-space: pre; }
  </style>
  <rect width="985" height="530" rx="15" fill="#ffffff"/>
  <rect x="10" y="10" width="965" height="510" rx="12" fill="#f6f8fa" stroke="#d0d7de"/>
  <g>
    <text x="92" y="48" fill="#8a5a00">,</text>
    <text x="100" y="48" fill="#8a5a00">+</text>
    <text x="108" y="48" fill="#8a5a00">+</text>
    <text x="116" y="48" fill="#8a5a00">+</text>
    <text x="124" y="48" fill="#8a5a00">+</text>
    <text x="132" y="48" fill="#8a5a00">;</text>
    <text x="140" y="48" fill="#8a5a00">:</text>
    <text x="148" y="48" fill="#8a5a00">.</text>
    <text x="76" y="64" fill="#8a5a00">,</text>
    <text x="84" y="64" fill="#8a5a00">:</text>
    <text x="92" y="64" fill="#8a5a00">*</text>
    <text x="100" y="64" fill="#8a5a00">%</text>
    <text x="108" y="64" fill="#8a5a00">S</text>
    <text x="116" y="64" fill="#8a5a00">S</text>
    <text x="124" y="64" fill="#8a5a00">%</text>
    <text x="132" y="64" fill="#8a5a00">%</text>
    <text x="140" y="64" fill="#8a5a00">?</text>
    <text x="148" y="64" fill="#8a5a00">;</text>
    <text x="156" y="64" fill="#8a5a00">+</text>
    <text x="164" y="64" fill="#8a5a00">:</text>
    <text x="60" y="80" fill="#8a5a00">,</text>
    <text x="68" y="80" fill="#8a5a00">;</text>
    <text x="76" y="80" fill="#8a5a00">;</text>
    <text x="84" y="80" fill="#8a5a00">+</text>
    <text x="92" y="80" fill="#8a5a00">?</text>
    <text x="100" y="80" fill="#8a5a00">%</text>
    <text x="108" y="80" fill="#8a5a00">?</text>
    <text x="116" y="80" fill="#8a5a00">%</text>
    <text x="124" y="80" fill="#8a5a00">#</text>
    <text x="132" y="80" fill="#8a5a00">#</text>
    <text x="140" y="80" fill="#8a5a00">%</text>
    <text x="148" y="80" fill="#8a5a00">*</text>
    <text x="156" y="80" fill="#8a5a00">;</text>
    <text x="164" y="80" fill="#8a5a00">:</text>
    <text x="172" y="80" fill="#8a5a00">:</text>
    <text x="180" y="80" fill="#8a5a00">,</text>
    <text x="52" y="96" fill="#8a5a00">:</text>
    <text x="60" y="96" fill="#8a5a00">+</text>
    <text x="68" y="96" fill="#8a5a00">;</text>
    <text x="76" y="96" fill="#8a5a00">;</text>
    <text x="84" y="96" fill="#8a5a00">*</text>
    <text x="92" y="96" fill="#8a5a00">%</text>
    <text x="100" y="96" fill="#8a5a00">%</text>
    <text x="108" y="96" fill="#8a5a00">S</text>
    <text x="116" y="96" fill="#8a5a00">S</text>
    <text x="124" y="96" fill="#8a5a00">S</text>
    <text x="132" y="96" fill="#8a5a00">%</text>
    <text x="140" y="96" fill="#8a5a00">%</text>
    <text x="148" y="96" fill="#8a5a00">S</text>
    <text x="156" y="96" fill="#8a5a00">+</text>
    <text x="164" y="96" fill="#8a5a00">:</text>
    <text x="172" y="96" fill="#8a5a00">*</text>
    <text x="180" y="96" fill="#8a5a00">:</text>
    <text x="188" y="96" fill="#8a5a00">,</text>
    <text x="44" y="112" fill="#8a5a00">;</text>
    <text x="52" y="112" fill="#8a5a00">+</text>
    <text x="60" y="112" fill="#8a5a00">+</text>
    <text x="68" y="112" fill="#8a5a00">+</text>
    <text x="76" y="112" fill="#8a5a00">;</text>
    <text x="84" y="112" fill="#8a5a00">;</text>
    <text x="92" y="112" fill="#8a5a00">?</text>
    <text x="100" y="112" fill="#24292f">S</text>
    <text x="108" y="112" fill="#8a5a00">#</text>
    <text x="116" y="112" fill="#24292f">%</text>
    <text x="124" y="112" fill="#24292f">?</text>
    <text x="132" y="112" fill="#24292f">%</text>
    <text x="140" y="112" fill="#24292f">%</text>
    <text x="148" y="112" fill="#8a5a00">%</text>
    <text x="156" y="112" fill="#8a5a00">%</text>
    <text x="164" y="112" fill="#8a5a00">+</text>
    <text x="172" y="112" fill="#8a5a00">;</text>
    <text x="180" y="112" fill="#8a5a00">:</text>
    <text x="188" y="112" fill="#8a5a00">:</text>
    <text x="196" y="112" fill="#8a5a00">,</text>
    <text x="28" y="128" fill="#8a5a00">.</text>
    <text x="36" y="128" fill="#8a5a00">*</text>
    <text x="44" y="128" fill="#8a5a00">%</text>
    <text x="52" y="128" fill="#8a5a00">*</text>
    <text x="60" y="128" fill="#8a5a00">;</text>
    <text x="68" y="128" fill="#8a5a00">:</text>
    <text x="76" y="128" fill="#24292f">:</text>
    <text x="84" y="128" fill="#8a5a00">:</text>
    <text x="92" y="128" fill="#8a5a00">;</text>
    <text x="100" y="128" fill="#8a5a00">*</text>
    <text x="108" y="128" fill="#8a5a00">?</text>
    <text x="116" y="128" fill="#8a5a00">+</text>
    <text x="124" y="128" fill="#8a5a00">?</text>
    <text x="132" y="128" fill="#8a5a00">S</text>
    <text x="140" y="128" fill="#8a5a00">?</text>
    <text x="148" y="128" fill="#8a5a00">*</text>
    <text x="156" y="128" fill="#8a5a00">;</text>
    <text x="164" y="128" fill="#24292f">:</text>
    <text x="172" y="128" fill="#8a5a00">:</text>
    <text x="180" y="128" fill="#8a5a00">:</text>
    <text x="188" y="128" fill="#8a5a00">:</text>
    <text x="196" y="128" fill="#8a5a00">:</text>
    <text x="204" y="128" fill="#8a5a00">:</text>
    <text x="212" y="128" fill="#8a5a00">;</text>
    <text x="220" y="128" fill="#8a5a00">:</text>
    <text x="228" y="128" fill="#8a5a00">.</text>
    <text x="28" y="144" fill="#8a5a00">,</text>
    <text x="36" y="144" fill="#8a5a00">%</text>
    <text x="44" y="144" fill="#8a5a00">*</text>
    <text x="52" y="144" fill="#8a5a00">,</text>
    <text x="60" y="144" fill="#24292f">,</text>
    <text x="68" y="144" fill="#8a5a00">:</text>
    <text x="76" y="144" fill="#8a5a00">;</text>
    <text x="84" y="144" fill="#8a5a00">;</text>
    <text x="92" y="144" fill="#8a5a00">:</text>
    <text x="100" y="144" fill="#8a5a00">+</text>
    <text x="108" y="144" fill="#8a5a00">*</text>
    <text x="116" y="144" fill="#8a5a00">+</text>
    <text x="124" y="144" fill="#b0005b">+</text>
    <text x="132" y="144" fill="#8a5a00">+</text>
    <text x="140" y="144" fill="#b0005b">;</text>
    <text x="148" y="144" fill="#8a5a00">:</text>
    <text x="156" y="144" fill="#8a5a00">:</text>
    <text x="164" y="144" fill="#8a5a00">:</text>
    <text x="172" y="144" fill="#8a5a00">:</text>
    <text x="180" y="144" fill="#24292f">:</text>
    <text x="188" y="144" fill="#8a5a00">;</text>
    <text x="196" y="144" fill="#8a5a00">:</text>
    <text x="212" y="144" fill="#8a5a00">,</text>
    <text x="220" y="144" fill="#8a5a00">+</text>
    <text x="228" y="144" fill="#8a5a00">+</text>
    <text x="236" y="144" fill="#8a5a00">*</text>
    <text x="244" y="144" fill="#8a5a00">;</text>
    <text x="252" y="144" fill="#8a5a00">,</text>
    <text x="28" y="160" fill="#8a5a00">:</text>
    <text x="36" y="160" fill="#8a5a00">:</text>
    <text x="44" y="160" fill="#8a5a00">.</text>
    <text x="52" y="160" fill="#24292f">;</text>
    <text x="60" y="160" fill="#8a5a00">;</text>
    <text x="68" y="160" fill="#b0005b">?</text>
    <text x="76" y="160" fill="#8a5a00">%</text>
    <text x="84" y="160" fill="#8a5a00">S</text>
    <text x="92" y="160" fill="#b0005b">?</text>
    <text x="100" y="160" fill="#b0005b">+</text>
    <text x="108" y="160" fill="#b0005b">?</text>
    <text x="116" y="160" fill="#b0005b">%</text>
    <text x="124" y="160" fill="#b0005b">*</text>
    <text x="132" y="160" fill="#b0005b">;</text>
    <text x="140" y="160" fill="#b0005b">:</text>
    <text x="148" y="160" fill="#b0005b">:</text>
    <text x="156" y="160" fill="#8a5a00">*</text>
    <text x="164" y="160" fill="#8a5a00">?</text>
    <text x="172" y="160" fill="#8a5a00">;</text>
    <text x="180" y="160" fill="#8a5a00">:</text>
    <text x="188" y="160" fill="#8a5a00">;</text>
    <text x="196" y="160" fill="#24292f">;</text>
    <text x="236" y="160" fill="#8a5a00">:</text>
    <text x="244" y="160" fill="#8a5a00">+</text>
    <text x="252" y="160" fill="#8a5a00">+</text>
    <text x="260" y="160" fill="#8a5a00">+</text>
    <text x="268" y="160" fill="#8a5a00">:</text>
    <text x="276" y="160" fill="#8a5a00">,</text>
    <text x="28" y="176" fill="#8a5a00">,</text>
    <text x="44" y="176" fill="#8a5a00">;</text>
    <text x="52" y="176" fill="#8a5a00">%</text>
    <text x="60" y="176" fill="#8a5a00">*</text>
    <text x="68" y="176" fill="#8a5a00">*</text>
    <text x="76" y="176" fill="#8a5a00">S</text>
    <text x="84" y="176" fill="#8a5a00">S</text>
    <text x="92" y="176" fill="#8a5a00">%</text>
    <text x="100" y="176" fill="#8a5a00">?</text>
    <text x="108" y="176" fill="#8a5a00">+</text>
    <text x="116" y="176" fill="#8a5a00">+</text>
    <text x="124" y="176" fill="#8a5a00">*</text>
    <text x="132" y="176" fill="#b0005b">S</text>
    <text x="140" y="176" fill="#b0005b">%</text>
    <text x="148" y="176" fill="#b0005b">*</text>
    <text x="156" y="176" fill="#8a5a00">?</text>
    <text x="164" y="176" fill="#8a5a00">?</text>
    <text x="172" y="176" fill="#b0005b">?</text>
    <text x="180" y="176" fill="#b0005b">*</text>
    <text x="188" y="176" fill="#b0005b">:</text>
    <text x="196" y="176" fill="#8a5a00">+</text>
    <text x="204" y="176" fill="#8a5a00">:</text>
    <text x="252" y="176" fill="#8a5a00">.</text>
    <text x="260" y="176" fill="#8a5a00">;</text>
    <text x="268" y="176" fill="#8a5a00">*</text>
    <text x="276" y="176" fill="#8a5a00">?</text>
    <text x="284" y="176" fill="#8a5a00">*</text>
    <text x="292" y="176" fill="#8a5a00">;</text>
    <text x="300" y="176" fill="#8a5a00">,</text>
    <text x="28" y="192" fill="#24292f">.</text>
    <text x="36" y="192" fill="#006b87">;</text>
    <text x="44" y="192" fill="#006b87">%</text>
    <text x="52" y="192" fill="#8a5a00">S</text>
    <text x="60" y="192" fill="#8a5a00">S</text>
    <text x="68" y="192" fill="#8a5a00">S</text>
    <text x="76" y="192" fill="#8a5a00">S</text>
    <text x="84" y="192" fill="#8a5a00">S</text>
    <text x="92" y="192" fill="#8a5a00">S</text>
    <text x="100" y="192" fill="#8a5a00">S</text>
    <text x="108" y="192" fill="#8a5a00">%</text>
    <text x="116" y="192" fill="#8a5a00">?</text>
    <text x="124" y="192" fill="#8a5a00">+</text>
    <text x="132" y="192" fill="#8a5a00">*</text>
    <text x="140" y="192" fill="#8a5a00">S</text>
    <text x="148" y="192" fill="#8a5a00">%</text>
    <text x="156" y="192" fill="#8a5a00">?</text>
    <text x="164" y="192" fill="#8a5a00">S</text>
    <text x="172" y="192" fill="#006b87">?</text>
    <text x="180" y="192" fill="#006b87">%</text>
    <text x="188" y="192" fill="#8a5a00">?</text>
    <text x="196" y="192" fill="#b0005b">*</text>
    <text x="204" y="192" fill="#8a5a00">+</text>
    <text x="212" y="192" fill="#8a5a00">;</text>
    <text x="220" y="192" fill="#8a5a00">,</text>
    <text x="276" y="192" fill="#8a5a00">,</text>
    <text x="284" y="192" fill="#8a5a00">+</text>
    <text x="292" y="192" fill="#8a5a00">?</text>
    <text x="300" y="192" fill="#8a5a00">%</text>
    <text x="308" y="192" fill="#8a5a00">*</text>
    <text x="316" y="192" fill="#8a5a00">;</text>
    <text x="324" y="192" fill="#8a5a00">,</text>
    <text x="28" y="208" fill="#24292f">,</text>
    <text x="36" y="208" fill="#24292f">%</text>
    <text x="44" y="208" fill="#8a5a00">@</text>
    <text x="52" y="208" fill="#b0005b">#</text>
    <text x="60" y="208" fill="#8a5a00">#</text>
    <text x="68" y="208" fill="#b0005b">#</text>
    <text x="76" y="208" fill="#b0005b">#</text>
    <text x="84" y="208" fill="#b0005b">#</text>
    <text x="92" y="208" fill="#b0005b">#</text>
    <text x="100" y="208" fill="#b0005b">#</text>
    <text x="108" y="208" fill="#b0005b">#</text>
    <text x="116" y="208" fill="#b0005b">#</text>
    <text x="124" y="208" fill="#8a5a00">%</text>
    <text x="132" y="208" fill="#8a5a00">%</text>
    <text x="140" y="208" fill="#8a5a00">%</text>
    <text x="148" y="208" fill="#8a5a00">%</text>
    <text x="156" y="208" fill="#8a5a00">#</text>
    <text x="164" y="208" fill="#b0005b">%</text>
    <text x="172" y="208" fill="#b0005b">*</text>
    <text x="180" y="208" fill="#b0005b">%</text>
    <text x="188" y="208" fill="#b0005b">S</text>
    <text x="196" y="208" fill="#b0005b">?</text>
    <text x="204" y="208" fill="#24292f">+</text>
    <text x="212" y="208" fill="#8a5a00">*</text>
    <text x="220" y="208" fill="#8a5a00">+</text>
    <text x="228" y="208" fill="#24292f">;</text>
    <text x="236" y="208" fill="#8a5a00">,</text>
    <text x="300" y="208" fill="#8a5a00">:</text>
    <text x="308" y="208" fill="#8a5a00">*</text>
    <text x="316" y="208" fill="#8a5a00">%</text>
    <text x="324" y="208" fill="#8a5a00">?</text>
    <text x="332" y="208" fill="#8a5a00">+</text>
    <text x="340" y="208" fill="#8a5a00">:</text>
    <text x="28" y="224" fill="#8a5a00">,</text>
    <text x="36" y="224" fill="#8a5a00">%</text>
    <text x="44" y="224" fill="#b0005b">S</text>
    <text x="52" y="224" fill="#006b87">S</text>
    <text x="60" y="224" fill="#b0005b">%</text>
    <text x="68" y="224" fill="#b0005b">%</text>
    <text x="76" y="224" fill="#b0005b">#</text>
    <text x="84" y="224" fill="#8a5a00">@</text>
    <text x="92" y="224" fill="#b0005b">#</text>
    <text x="100" y="224" fill="#b0005b">#</text>
    <text x="108" y="224" fill="#b0005b">#</text>
    <text x="116" y="224" fill="#b0005b">@</text>
    <text x="124" y="224" fill="#8a5a00">#</text>
    <text x="132" y="224" fill="#b0005b">%</text>
    <text x="140" y="224" fill="#8a5a00">S</text>
    <text x="148" y="224" fill="#b0005b">S</text>
    <text x="156" y="224" fill="#8a5a00">S</text>
    <text x="164" y="224" fill="#b0005b">%</text>
    <text x="172" y="224" fill="#b0005b">*</text>
    <text x="180" y="224" fill="#b0005b">S</text>
    <text x="188" y="224" fill="#8a5a00">S</text>
    <text x="196" y="224" fill="#b0005b">?</text>
    <text x="204" y="224" fill="#b0005b">+</text>
    <text x="212" y="224" fill="#8a5a00">+</text>
    <text x="220" y="224" fill="#8a5a00">+</text>
    <text x="228" y="224" fill="#8a5a00">+</text>
    <text x="236" y="224" fill="#8a5a00">*</text>
    <text x="244" y="224" fill="#8a5a00">;</text>
    <text x="252" y="224" fill="#8a5a00">,</text>
    <text x="316" y="224" fill="#8a5a00">,</text>
    <text x="324" y="224" fill="#8a5a00">;</text>
    <text x="332" y="224" fill="#8a5a00">?</text>
    <text x="340" y="224" fill="#8a5a00">?</text>
    <text x="348" y="224" fill="#8a5a00">+</text>
    <text x="356" y="224" fill="#8a5a00">:</text>
    <text x="28" y="240" fill="#24292f">+</text>
    <text x="36" y="240" fill="#b0005b">S</text>
    <text x="44" y="240" fill="#006b87">#</text>
    <text x="52" y="240" fill="#006b87">S</text>
    <text x="60" y="240" fill="#006b87">S</text>
    <text x="68" y="240" fill="#006b87">?</text>
    <text x="76" y="240" fill="#006b87">*</text>
    <text x="84" y="240" fill="#006b87">%</text>
    <text x="92" y="240" fill="#8a5a00">S</text>
    <text x="100" y="240" fill="#006b87">#</text>
    <text x="108" y="240" fill="#006b87">@</text>
    <text x="116" y="240" fill="#006b87">@</text>
    <text x="124" y="240" fill="#b0005b">#</text>
    <text x="132" y="240" fill="#b0005b">%</text>
    <text x="140" y="240" fill="#b0005b">%</text>
    <text x="148" y="240" fill="#b0005b">%</text>
    <text x="156" y="240" fill="#006b87">%</text>
    <text x="164" y="240" fill="#8a5a00">S</text>
    <text x="172" y="240" fill="#b0005b">?</text>
    <text x="180" y="240" fill="#b0005b">#</text>
    <text x="188" y="240" fill="#b0005b">%</text>
    <text x="196" y="240" fill="#b0005b">?</text>
    <text x="204" y="240" fill="#b0005b">;</text>
    <text x="212" y="240" fill="#b0005b">+</text>
    <text x="220" y="240" fill="#b0005b">+</text>
    <text x="228" y="240" fill="#b0005b">+</text>
    <text x="236" y="240" fill="#24292f">+</text>
    <text x="244" y="240" fill="#8a5a00">*</text>
    <text x="252" y="240" fill="#8a5a00">*</text>
    <text x="260" y="240" fill="#8a5a00">;</text>
    <text x="268" y="240" fill="#8a5a00">,</text>
    <text x="340" y="240" fill="#24292f">,</text>
    <text x="348" y="240" fill="#8a5a00">;</text>
    <text x="356" y="240" fill="#8a5a00">.</text>
    <text x="28" y="256" fill="#8a5a00">*</text>
    <text x="36" y="256" fill="#8a5a00">@</text>
    <text x="44" y="256" fill="#006b87">#</text>
    <text x="52" y="256" fill="#8a5a00">S</text>
    <text x="60" y="256" fill="#b0005b">#</text>
    <text x="68" y="256" fill="#b0005b">S</text>
    <text x="76" y="256" fill="#8a5a00">S</text>
    <text x="84" y="256" fill="#006b87">S</text>
    <text x="92" y="256" fill="#006b87">?</text>
    <text x="100" y="256" fill="#006b87">?</text>
    <text x="108" y="256" fill="#006b87">S</text>
    <text x="116" y="256" fill="#006b87">S</text>
    <text x="124" y="256" fill="#006b87">@</text>
    <text x="132" y="256" fill="#8a5a00">#</text>
    <text x="140" y="256" fill="#006b87">%</text>
    <text x="148" y="256" fill="#006b87">?</text>
    <text x="156" y="256" fill="#006b87">*</text>
    <text x="164" y="256" fill="#8a5a00">%</text>
    <text x="172" y="256" fill="#b0005b">%</text>
    <text x="180" y="256" fill="#006b87">#</text>
    <text x="188" y="256" fill="#006b87">?</text>
    <text x="196" y="256" fill="#b0005b">?</text>
    <text x="204" y="256" fill="#b0005b">+</text>
    <text x="212" y="256" fill="#b0005b">+</text>
    <text x="220" y="256" fill="#b0005b">+</text>
    <text x="228" y="256" fill="#b0005b">+</text>
    <text x="236" y="256" fill="#b0005b">+</text>
    <text x="244" y="256" fill="#8a5a00">+</text>
    <text x="252" y="256" fill="#8a5a00">+</text>
    <text x="260" y="256" fill="#8a5a00">*</text>
    <text x="268" y="256" fill="#8a5a00">*</text>
    <text x="276" y="256" fill="#8a5a00">+</text>
    <text x="284" y="256" fill="#8a5a00">:</text>
    <text x="292" y="256" fill="#8a5a00">,</text>
    <text x="300" y="256" fill="#8a5a00">:</text>
    <text x="308" y="256" fill="#8a5a00">;</text>
    <text x="316" y="256" fill="#24292f">;</text>
    <text x="324" y="256" fill="#8a5a00">+</text>
    <text x="332" y="256" fill="#8a5a00">+</text>
    <text x="340" y="256" fill="#b0005b">*</text>
    <text x="348" y="256" fill="#b0005b">?</text>
    <text x="356" y="256" fill="#24292f">+</text>
    <text x="364" y="256" fill="#8a5a00">;</text>
    <text x="372" y="256" fill="#8a5a00">,</text>
    <text x="28" y="272" fill="#24292f">+</text>
    <text x="36" y="272" fill="#006b87">*</text>
    <text x="44" y="272" fill="#006b87">%</text>
    <text x="52" y="272" fill="#8a5a00">%</text>
    <text x="60" y="272" fill="#8a5a00">S</text>
    <text x="68" y="272" fill="#b0005b">#</text>
    <text x="76" y="272" fill="#b0005b">#</text>
    <text x="84" y="272" fill="#8a5a00">@</text>
    <text x="92" y="272" fill="#8a5a00">@</text>
    <text x="100" y="272" fill="#006b87">S</text>
    <text x="108" y="272" fill="#006b87">?</text>
    <text x="116" y="272" fill="#006b87">*</text>
    <text x="124" y="272" fill="#006b87">*</text>
    <text x="132" y="272" fill="#006b87">?</text>
    <text x="140" y="272" fill="#b0005b">?</text>
    <text x="148" y="272" fill="#b0005b">%</text>
    <text x="156" y="272" fill="#b0005b">%</text>
    <text x="164" y="272" fill="#8a5a00">%</text>
    <text x="172" y="272" fill="#b0005b">#</text>
    <text x="180" y="272" fill="#006b87">@</text>
    <text x="188" y="272" fill="#b0005b">?</text>
    <text x="196" y="272" fill="#b0005b">?</text>
    <text x="204" y="272" fill="#b0005b">*</text>
    <text x="212" y="272" fill="#b0005b">;</text>
    <text x="220" y="272" fill="#b0005b">;</text>
    <text x="228" y="272" fill="#b0005b">;</text>
    <text x="236" y="272" fill="#8a5a00">+</text>
    <text x="244" y="272" fill="#8a5a00">+</text>
    <text x="252" y="272" fill="#8a5a00">+</text>
    <text x="260" y="272" fill="#8a5a00">+</text>
    <text x="268" y="272" fill="#8a5a00">*</text>
    <text x="276" y="272" fill="#24292f">?</text>
    <text x="284" y="272" fill="#8a5a00">%</text>
    <text x="292" y="272" fill="#8a5a00">S</text>
    <text x="300" y="272" fill="#8a5a00">@</text>
    <text x="308" y="272" fill="#8a5a00">@</text>
    <text x="316" y="272" fill="#8a5a00">@</text>
    <text x="324" y="272" fill="#8a5a00">@</text>
    <text x="332" y="272" fill="#8a5a00">@</text>
    <text x="340" y="272" fill="#24292f">#</text>
    <text x="348" y="272" fill="#8a5a00">@</text>
    <text x="356" y="272" fill="#24292f">#</text>
    <text x="364" y="272" fill="#24292f">?</text>
    <text x="372" y="272" fill="#8a5a00">:</text>
    <text x="28" y="288" fill="#8a5a00">*</text>
    <text x="36" y="288" fill="#006b87">+</text>
    <text x="44" y="288" fill="#006b87">?</text>
    <text x="52" y="288" fill="#006b87">S</text>
    <text x="60" y="288" fill="#006b87">S</text>
    <text x="68" y="288" fill="#006b87">#</text>
    <text x="76" y="288" fill="#006b87">@</text>
    <text x="84" y="288" fill="#006b87">#</text>
    <text x="92" y="288" fill="#006b87">#</text>
    <text x="100" y="288" fill="#8a5a00">@</text>
    <text x="108" y="288" fill="#b0005b">@</text>
    <text x="116" y="288" fill="#b0005b">#</text>
    <text x="124" y="288" fill="#b0005b">S</text>
    <text x="132" y="288" fill="#8a5a00">%</text>
    <text x="140" y="288" fill="#b0005b">*</text>
    <text x="148" y="288" fill="#b0005b">%</text>
    <text x="156" y="288" fill="#b0005b">*</text>
    <text x="164" y="288" fill="#b0005b">*</text>
    <text x="172" y="288" fill="#006b87">*</text>
    <text x="180" y="288" fill="#006b87">+</text>
    <text x="188" y="288" fill="#b0005b">+</text>
    <text x="196" y="288" fill="#8a5a00">?</text>
    <text x="204" y="288" fill="#b0005b">?</text>
    <text x="212" y="288" fill="#8a5a00">+</text>
    <text x="220" y="288" fill="#b0005b">+</text>
    <text x="228" y="288" fill="#b0005b">+</text>
    <text x="236" y="288" fill="#b0005b">+</text>
    <text x="244" y="288" fill="#8a5a00">+</text>
    <text x="252" y="288" fill="#8a5a00">+</text>
    <text x="260" y="288" fill="#8a5a00">+</text>
    <text x="268" y="288" fill="#8a5a00">*</text>
    <text x="276" y="288" fill="#b0005b">?</text>
    <text x="284" y="288" fill="#b0005b">?</text>
    <text x="292" y="288" fill="#b0005b">?</text>
    <text x="300" y="288" fill="#8a5a00">?</text>
    <text x="308" y="288" fill="#006b87">*</text>
    <text x="316" y="288" fill="#006b87">+</text>
    <text x="324" y="288" fill="#006b87">?</text>
    <text x="332" y="288" fill="#006b87">*</text>
    <text x="340" y="288" fill="#006b87">?</text>
    <text x="348" y="288" fill="#006b87">S</text>
    <text x="356" y="288" fill="#006b87">S</text>
    <text x="364" y="288" fill="#b0005b">#</text>
    <text x="372" y="288" fill="#24292f">+</text>
    <text x="28" y="304" fill="#8a5a00">+</text>
    <text x="36" y="304" fill="#8a5a00">?</text>
    <text x="44" y="304" fill="#006b87">?</text>
    <text x="52" y="304" fill="#006b87">*</text>
    <text x="60" y="304" fill="#006b87">%</text>
    <text x="68" y="304" fill="#006b87">#</text>
    <text x="76" y="304" fill="#006b87">#</text>
    <text x="84" y="304" fill="#006b87">#</text>
    <text x="92" y="304" fill="#006b87">#</text>
    <text x="100" y="304" fill="#006b87">#</text>
    <text x="108" y="304" fill="#006b87">#</text>
    <text x="116" y="304" fill="#006b87">#</text>
    <text x="124" y="304" fill="#8a5a00">#</text>
    <text x="132" y="304" fill="#b0005b">@</text>
    <text x="140" y="304" fill="#8a5a00">@</text>
    <text x="148" y="304" fill="#b0005b">@</text>
    <text x="156" y="304" fill="#b0005b">S</text>
    <text x="164" y="304" fill="#b0005b">%</text>
    <text x="172" y="304" fill="#b0005b">?</text>
    <text x="180" y="304" fill="#b0005b">*</text>
    <text x="188" y="304" fill="#b0005b">?</text>
    <text x="196" y="304" fill="#b0005b">S</text>
    <text x="204" y="304" fill="#b0005b">%</text>
    <text x="212" y="304" fill="#8a5a00">%</text>
    <text x="220" y="304" fill="#8a5a00">%</text>
    <text x="228" y="304" fill="#8a5a00">?</text>
    <text x="236" y="304" fill="#8a5a00">*</text>
    <text x="244" y="304" fill="#8a5a00">;</text>
    <text x="252" y="304" fill="#8a5a00">:</text>
    <text x="260" y="304" fill="#8a5a00">:</text>
    <text x="268" y="304" fill="#b0005b">:</text>
    <text x="276" y="304" fill="#b0005b">:</text>
    <text x="284" y="304" fill="#b0005b">:</text>
    <text x="292" y="304" fill="#b0005b">+</text>
    <text x="300" y="304" fill="#b0005b">;</text>
    <text x="308" y="304" fill="#8a5a00">:</text>
    <text x="316" y="304" fill="#24292f">;</text>
    <text x="324" y="304" fill="#8a5a00">;</text>
    <text x="332" y="304" fill="#8a5a00">*</text>
    <text x="340" y="304" fill="#006b87">#</text>
    <text x="348" y="304" fill="#006b87">S</text>
    <text x="356" y="304" fill="#006b87">S</text>
    <text x="364" y="304" fill="#006b87">#</text>
    <text x="372" y="304" fill="#006b87">*</text>
    <text x="28" y="320" fill="#24292f">.</text>
    <text x="36" y="320" fill="#8a5a00">:</text>
    <text x="52" y="320" fill="#b0005b">:</text>
    <text x="60" y="320" fill="#8a5a00">@</text>
    <text x="68" y="320" fill="#006b87">@</text>
    <text x="76" y="320" fill="#006b87">#</text>
    <text x="84" y="320" fill="#006b87">#</text>
    <text x="92" y="320" fill="#006b87">#</text>
    <text x="100" y="320" fill="#006b87">#</text>
    <text x="108" y="320" fill="#006b87">#</text>
    <text x="116" y="320" fill="#006b87">#</text>
    <text x="124" y="320" fill="#006b87">S</text>
    <text x="132" y="320" fill="#006b87">#</text>
    <text x="140" y="320" fill="#006b87">S</text>
    <text x="148" y="320" fill="#006b87">%</text>
    <text x="156" y="320" fill="#8a5a00">%</text>
    <text x="164" y="320" fill="#8a5a00">S</text>
    <text x="172" y="320" fill="#8a5a00">S</text>
    <text x="180" y="320" fill="#b0005b">#</text>
    <text x="188" y="320" fill="#b0005b">S</text>
    <text x="196" y="320" fill="#b0005b">;</text>
    <text x="204" y="320" fill="#b0005b">:</text>
    <text x="212" y="320" fill="#b0005b">:</text>
    <text x="220" y="320" fill="#8a5a00">:</text>
    <text x="228" y="320" fill="#8a5a00">:</text>
    <text x="236" y="320" fill="#8a5a00">:</text>
    <text x="244" y="320" fill="#8a5a00">:</text>
    <text x="252" y="320" fill="#8a5a00">;</text>
    <text x="260" y="320" fill="#8a5a00">+</text>
    <text x="268" y="320" fill="#8a5a00">*</text>
    <text x="276" y="320" fill="#8a5a00">?</text>
    <text x="284" y="320" fill="#8a5a00">?</text>
    <text x="292" y="320" fill="#8a5a00">#</text>
    <text x="300" y="320" fill="#8a5a00">@</text>
    <text x="308" y="320" fill="#8a5a00">%</text>
    <text x="316" y="320" fill="#8a5a00">%</text>
    <text x="324" y="320" fill="#8a5a00">S</text>
    <text x="332" y="320" fill="#8a5a00">@</text>
    <text x="340" y="320" fill="#006b87">@</text>
    <text x="348" y="320" fill="#006b87">#</text>
    <text x="356" y="320" fill="#006b87">@</text>
    <text x="364" y="320" fill="#006b87">@</text>
    <text x="372" y="320" fill="#006b87">?</text>
    <text x="60" y="336" fill="#006b87">;</text>
    <text x="68" y="336" fill="#006b87">?</text>
    <text x="76" y="336" fill="#006b87">#</text>
    <text x="84" y="336" fill="#006b87">@</text>
    <text x="92" y="336" fill="#006b87">#</text>
    <text x="100" y="336" fill="#006b87">S</text>
    <text x="108" y="336" fill="#8a5a00">%</text>
    <text x="116" y="336" fill="#006b87">S</text>
    <text x="124" y="336" fill="#006b87">+</text>
    <text x="132" y="336" fill="#8a5a00">+</text>
    <text x="140" y="336" fill="#006b87">*</text>
    <text x="148" y="336" fill="#24292f">,</text>
    <text x="156" y="336" fill="#8a5a00">,</text>
    <text x="164" y="336" fill="#b0005b">:</text>
    <text x="172" y="336" fill="#b0005b">;</text>
    <text x="180" y="336" fill="#b0005b">;</text>
    <text x="188" y="336" fill="#8a5a00">;</text>
    <text x="196" y="336" fill="#8a5a00">:</text>
    <text x="204" y="336" fill="#8a5a00">:</text>
    <text x="212" y="336" fill="#8a5a00">;</text>
    <text x="220" y="336" fill="#8a5a00">+</text>
    <text x="228" y="336" fill="#8a5a00">+</text>
    <text x="236" y="336" fill="#8a5a00">+</text>
    <text x="244" y="336" fill="#8a5a00">*</text>
    <text x="252" y="336" fill="#8a5a00">?</text>
    <text x="260" y="336" fill="#b0005b">%</text>
    <text x="268" y="336" fill="#b0005b">%</text>
    <text x="276" y="336" fill="#b0005b">S</text>
    <text x="284" y="336" fill="#b0005b">S</text>
    <text x="292" y="336" fill="#006b87">S</text>
    <text x="300" y="336" fill="#006b87">#</text>
    <text x="308" y="336" fill="#006b87">#</text>
    <text x="316" y="336" fill="#006b87">@</text>
    <text x="324" y="336" fill="#006b87">#</text>
    <text x="332" y="336" fill="#006b87">S</text>
    <text x="340" y="336" fill="#006b87">S</text>
    <text x="348" y="336" fill="#006b87">S</text>
    <text x="356" y="336" fill="#006b87">S</text>
    <text x="364" y="336" fill="#006b87">S</text>
    <text x="372" y="336" fill="#006b87">?</text>
    <text x="76" y="352" fill="#24292f">,</text>
    <text x="84" y="352" fill="#006b87">+</text>
    <text x="92" y="352" fill="#006b87">%</text>
    <text x="100" y="352" fill="#006b87">S</text>
    <text x="108" y="352" fill="#b0005b">?</text>
    <text x="116" y="352" fill="#b0005b">%</text>
    <text x="124" y="352" fill="#24292f">*</text>
    <text x="132" y="352" fill="#8a5a00">,</text>
    <text x="140" y="352" fill="#8a5a00">:</text>
    <text x="148" y="352" fill="#24292f">:</text>
    <text x="156" y="352" fill="#8a5a00">:</text>
    <text x="172" y="352" fill="#8a5a00">:</text>
    <text x="180" y="352" fill="#8a5a00">:</text>
    <text x="188" y="352" fill="#8a5a00">:</text>
    <text x="196" y="352" fill="#8a5a00">:</text>
    <text x="204" y="352" fill="#b0005b">:</text>
    <text x="212" y="352" fill="#b0005b">:</text>
    <text x="220" y="352" fill="#b0005b">:</text>
    <text x="228" y="352" fill="#b0005b">:</text>
    <text x="236" y="352" fill="#b0005b">,</text>
    <text x="244" y="352" fill="#b0005b">,</text>
    <text x="252" y="352" fill="#8a5a00">,</text>
    <text x="260" y="352" fill="#8a5a00">,</text>
    <text x="268" y="352" fill="#8a5a00">,</text>
    <text x="276" y="352" fill="#8a5a00">,</text>
    <text x="284" y="352" fill="#8a5a00">,</text>
    <text x="292" y="352" fill="#24292f">,</text>
    <text x="300" y="352" fill="#24292f">,</text>
    <text x="308" y="352" fill="#006b87">,</text>
    <text x="316" y="352" fill="#006b87">,</text>
    <text x="324" y="352" fill="#24292f">,</text>
    <text x="332" y="352" fill="#24292f">.</text>
    <text x="340" y="352" fill="#24292f">.</text>
    <text x="348" y="352" fill="#24292f">.</text>
  </g>
  <g>
    <text x="420" y="46" fill="#24292f"><tspan fill="#006b87">agustin</tspan>@github<tspan fill="#57606a"> --------------------------------------</tspan></text>
    <text x="420" y="76" fill="#24292f"><tspan fill="#57606a">. </tspan><tspan fill="#9a6700">Name</tspan><tspan>:</tspan><tspan fill="#57606a"> ............... </tspan><tspan fill="#0969da">Agustin Caceres</tspan></text>
    <text x="420" y="100" fill="#24292f"><tspan fill="#57606a">. </tspan><tspan fill="#9a6700">Focus</tspan><tspan>:</tspan><tspan fill="#57606a"> .. </tspan><tspan fill="#0969da">Data Governance, Backend &amp; AI</tspan></text>
    <text x="420" y="124" fill="#24292f"><tspan fill="#57606a">. </tspan><tspan fill="#9a6700">Builder</tspan><tspan>:</tspan><tspan fill="#57606a"> .................... </tspan><tspan fill="#0969da">Bedosbe</tspan></text>
    <text x="420" y="148" fill="#24292f"><tspan fill="#57606a">. </tspan><tspan fill="#9a6700">Builder</tspan><tspan>:</tspan><tspan fill="#57606a"> ...................... </tspan><tspan fill="#0969da">iAlex</tspan></text>
    <text x="420" y="172" fill="#24292f"><tspan fill="#57606a">. </tspan><tspan fill="#9a6700">Intersection</tspan><tspan>:</tspan><tspan fill="#57606a"> .. </tspan><tspan fill="#0969da">Technology, business &amp; law</tspan></text>
    <text x="420" y="204" fill="#24292f"><tspan fill="#57606a">. </tspan><tspan fill="#9a6700">Palette</tspan>: <tspan fill="#006b87">cyan</tspan> <tspan fill="#b0005b">magenta</tspan> <tspan fill="#8a5a00">amber</tspan></text>
    <text x="420" y="248" fill="#24292f"><tspan>Projects</tspan><tspan fill="#57606a"> ----------------------------------</tspan></text>
    <text x="420" y="278" fill="#24292f"><tspan fill="#57606a">. </tspan><tspan fill="#9a6700">Bedosbe</tspan><tspan>:</tspan><tspan fill="#57606a"> ............... </tspan><tspan fill="#0969da">B2B commerce</tspan></text>
    <text x="420" y="302" fill="#24292f"><tspan fill="#57606a">. </tspan><tspan fill="#9a6700">iAlex</tspan><tspan>:</tspan><tspan fill="#57606a"> ..................... </tspan><tspan fill="#0969da">Legal AI</tspan></text>
    <text x="420" y="326" fill="#24292f"><tspan fill="#57606a">. </tspan><tspan fill="#9a6700">Mode</tspan><tspan>:</tspan><tspan fill="#57606a"> ........... </tspan><tspan fill="#0969da">Ship, learn, repeat</tspan></text>
    <text x="420" y="370" fill="#24292f"><tspan>GitHub</tspan><tspan fill="#57606a"> ----------------------------------</tspan></text>
    <text x="420" y="400" fill="#24292f"><tspan fill="#57606a">. </tspan><tspan fill="#9a6700">Repos</tspan><tspan>:</tspan><tspan id="repo_data_dots" fill="#57606a"> ............ </tspan><tspan id="repo_data" fill="#0969da">9</tspan></text>
    <text x="630" y="400" fill="#24292f"><tspan fill="#57606a">. </tspan><tspan fill="#9a6700">Stars</tspan><tspan>:</tspan><tspan id="star_data_dots" fill="#57606a"> ............ </tspan><tspan id="star_data" fill="#0969da">0</tspan></text>
    <text x="420" y="424" fill="#24292f"><tspan fill="#57606a">. </tspan><tspan fill="#9a6700">Followers</tspan><tspan>:</tspan><tspan id="follower_data_dots" fill="#57606a"> ....... </tspan><tspan id="follower_data" fill="#0969da">11</tspan></text>
    <text x="630" y="424" fill="#24292f"><tspan fill="#57606a">. </tspan><tspan fill="#9a6700">Following</tspan><tspan>:</tspan><tspan id="following_data_dots" fill="#57606a"> ....... </tspan><tspan id="following_data" fill="#0969da">11</tspan></text>
    <text x="420" y="448" fill="#24292f"><tspan fill="#57606a">. </tspan><tspan fill="#9a6700">Since</tspan><tspan>:</tspan><tspan id="since_data_dots" fill="#57606a"> ......... </tspan><tspan id="since_data" fill="#0969da">2023</tspan></text>
    <text x="420" y="482" fill="#24292f"><tspan>Contact</tspan><tspan fill="#57606a"> ----------------------------------</tspan></text>
    <text x="420" y="512" fill="#24292f"><tspan fill="#57606a">. </tspan><tspan fill="#9a6700">Social</tspan><tspan>:</tspan><tspan fill="#57606a"> .... </tspan><tspan fill="#0969da">LinkedIn / X / Instagram</tspan></text>
  </g>
</svg>
