<?xml version="1.0" encoding="UTF-8"?>
<svg xmlns="http://www.w3.org/2000/svg" width="344" height="392" viewBox="0 0 344 392" role="img" aria-labelledby="title">
  <title id="title">ASCII portrait of Gustavo Cerati playing guitar</title>
  <g font-family="Consolas, 'Liberation Mono', monospace" font-size="13" font-weight="700" xml:space="preserve">
    <text x="64" y="12" fill="#e6edf3">,</text>
    <text x="72" y="12" fill="#e6edf3">,</text>
    <text x="80" y="12" fill="#e6edf3">.</text>
    <text x="88" y="12" fill="#e6edf3">.</text>
    <text x="96" y="12" fill="#e6edf3">.</text>
    <text x="296" y="12" fill="#e6edf3">,</text>
    <text x="304" y="12" fill="#e6edf3">:</text>
    <text x="312" y="12" fill="#e6edf3">,</text>
    <text x="320" y="12" fill="#e6edf3">,</text>
    <text x="48" y="26" fill="#e6edf3">,</text>
    <text x="56" y="26" fill="#e6edf3">+</text>
    <text x="64" y="26" fill="#e6edf3">*</text>
    <text x="72" y="26" fill="#e6edf3">*</text>
    <text x="80" y="26" fill="#e6edf3">*</text>
    <text x="88" y="26" fill="#e6edf3">*</text>
    <text x="96" y="26" fill="#39d6ff">*</text>
    <text x="104" y="26" fill="#e6edf3">*</text>
    <text x="112" y="26" fill="#e6edf3">;</text>
    <text x="120" y="26" fill="#e6edf3">.</text>
    <text x="280" y="26" fill="#e6edf3">.</text>
    <text x="288" y="26" fill="#ffd166">:</text>
    <text x="296" y="26" fill="#ffd166">+</text>
    <text x="304" y="26" fill="#ffd166">?</text>
    <text x="312" y="26" fill="#ffd166">%</text>
    <text x="320" y="26" fill="#e6edf3">*</text>
    <text x="328" y="26" fill="#e6edf3">;</text>
    <text x="336" y="26" fill="#e6edf3">,</text>
    <text x="32" y="40" fill="#e6edf3">.</text>
    <text x="40" y="40" fill="#e6edf3">;</text>
    <text x="48" y="40" fill="#ff4fa3">*</text>
    <text x="56" y="40" fill="#ff4fa3">;</text>
    <text x="64" y="40" fill="#ff4fa3">;</text>
    <text x="72" y="40" fill="#ff4fa3">;</text>
    <text x="80" y="40" fill="#ff4fa3">;</text>
    <text x="88" y="40" fill="#ff4fa3">*</text>
    <text x="96" y="40" fill="#ffd166">*</text>
    <text x="104" y="40" fill="#39d6ff">?</text>
    <text x="112" y="40" fill="#39d6ff">%</text>
    <text x="120" y="40" fill="#e6edf3">+</text>
    <text x="128" y="40" fill="#e6edf3">,</text>
    <text x="272" y="40" fill="#ffd166">:</text>
    <text x="280" y="40" fill="#ffd166">+</text>
    <text x="288" y="40" fill="#ffd166">?</text>
    <text x="296" y="40" fill="#ffd166">S</text>
    <text x="304" y="40" fill="#39d6ff">S</text>
    <text x="312" y="40" fill="#ffd166">?</text>
    <text x="320" y="40" fill="#ffd166">+</text>
    <text x="328" y="40" fill="#ffd166">,</text>
    <text x="24" y="54" fill="#e6edf3">,</text>
    <text x="32" y="54" fill="#ffd166">;</text>
    <text x="40" y="54" fill="#ff4fa3">*</text>
    <text x="48" y="54" fill="#ff4fa3">*</text>
    <text x="56" y="54" fill="#ff4fa3">:</text>
    <text x="64" y="54" fill="#ffd166">:</text>
    <text x="72" y="54" fill="#ffd166">,</text>
    <text x="80" y="54" fill="#ff4fa3">:</text>
    <text x="88" y="54" fill="#ff4fa3">;</text>
    <text x="96" y="54" fill="#ff4fa3">+</text>
    <text x="104" y="54" fill="#ffd166">*</text>
    <text x="112" y="54" fill="#39d6ff">%</text>
    <text x="120" y="54" fill="#39d6ff">%</text>
    <text x="128" y="54" fill="#e6edf3">*</text>
    <text x="136" y="54" fill="#e6edf3">:</text>
    <text x="256" y="54" fill="#e6edf3">,</text>
    <text x="264" y="54" fill="#39d6ff">;</text>
    <text x="272" y="54" fill="#39d6ff">?</text>
    <text x="280" y="54" fill="#39d6ff">S</text>
    <text x="288" y="54" fill="#39d6ff">S</text>
    <text x="296" y="54" fill="#39d6ff">?</text>
    <text x="304" y="54" fill="#39d6ff">*</text>
    <text x="312" y="54" fill="#39d6ff">:</text>
    <text x="24" y="68" fill="#ffd166">:</text>
    <text x="32" y="68" fill="#ff4fa3">*</text>
    <text x="40" y="68" fill="#ff4fa3">*</text>
    <text x="48" y="68" fill="#ff4fa3">;</text>
    <text x="56" y="68" fill="#ffd166">;</text>
    <text x="64" y="68" fill="#ffd166">;</text>
    <text x="72" y="68" fill="#ffd166">;</text>
    <text x="80" y="68" fill="#ff4fa3">+</text>
    <text x="88" y="68" fill="#ff4fa3">*</text>
    <text x="96" y="68" fill="#ff4fa3">*</text>
    <text x="104" y="68" fill="#ffd166">*</text>
    <text x="112" y="68" fill="#39d6ff">?</text>
    <text x="120" y="68" fill="#39d6ff">?</text>
    <text x="128" y="68" fill="#39d6ff">%</text>
    <text x="136" y="68" fill="#39d6ff">?</text>
    <text x="144" y="68" fill="#e6edf3">;</text>
    <text x="152" y="68" fill="#e6edf3">.</text>
    <text x="248" y="68" fill="#39d6ff">:</text>
    <text x="256" y="68" fill="#39d6ff">?</text>
    <text x="264" y="68" fill="#39d6ff">S</text>
    <text x="272" y="68" fill="#39d6ff">S</text>
    <text x="280" y="68" fill="#39d6ff">%</text>
    <text x="288" y="68" fill="#39d6ff">?</text>
    <text x="296" y="68" fill="#39d6ff">+</text>
    <text x="304" y="68" fill="#39d6ff">,</text>
    <text x="16" y="82" fill="#e6edf3">.</text>
    <text x="24" y="82" fill="#ffd166">;</text>
    <text x="32" y="82" fill="#ff4fa3">+</text>
    <text x="40" y="82" fill="#ff4fa3">*</text>
    <text x="48" y="82" fill="#ff4fa3">*</text>
    <text x="56" y="82" fill="#ff4fa3">*</text>
    <text x="64" y="82" fill="#ff4fa3">+</text>
    <text x="72" y="82" fill="#ff4fa3">;</text>
    <text x="80" y="82" fill="#ff4fa3">;</text>
    <text x="88" y="82" fill="#ff4fa3">+</text>
    <text x="96" y="82" fill="#ff4fa3">;</text>
    <text x="104" y="82" fill="#ffd166">:</text>
    <text x="112" y="82" fill="#39d6ff">+</text>
    <text x="120" y="82" fill="#39d6ff">%</text>
    <text x="128" y="82" fill="#39d6ff">S</text>
    <text x="136" y="82" fill="#39d6ff">S</text>
    <text x="144" y="82" fill="#39d6ff">?</text>
    <text x="152" y="82" fill="#e6edf3">+</text>
    <text x="160" y="82" fill="#e6edf3">,</text>
    <text x="232" y="82" fill="#e6edf3">,</text>
    <text x="240" y="82" fill="#39d6ff">;</text>
    <text x="248" y="82" fill="#39d6ff">?</text>
    <text x="256" y="82" fill="#39d6ff">%</text>
    <text x="264" y="82" fill="#39d6ff">*</text>
    <text x="272" y="82" fill="#39d6ff">*</text>
    <text x="280" y="82" fill="#39d6ff">+</text>
    <text x="288" y="82" fill="#39d6ff">:</text>
    <text x="16" y="96" fill="#ffd166">,</text>
    <text x="24" y="96" fill="#ff4fa3">+</text>
    <text x="32" y="96" fill="#ff4fa3">*</text>
    <text x="40" y="96" fill="#ff4fa3">*</text>
    <text x="48" y="96" fill="#ff4fa3">+</text>
    <text x="56" y="96" fill="#ff4fa3">+</text>
    <text x="64" y="96" fill="#ff4fa3">*</text>
    <text x="72" y="96" fill="#ff4fa3">;</text>
    <text x="80" y="96" fill="#ffd166">:</text>
    <text x="88" y="96" fill="#ff4fa3">:</text>
    <text x="96" y="96" fill="#ffd166">,</text>
    <text x="104" y="96" fill="#ffd166">;</text>
    <text x="112" y="96" fill="#ffd166">%</text>
    <text x="120" y="96" fill="#39d6ff">S</text>
    <text x="128" y="96" fill="#39d6ff">S</text>
    <text x="136" y="96" fill="#39d6ff">%</text>
    <text x="144" y="96" fill="#39d6ff">%</text>
    <text x="152" y="96" fill="#39d6ff">%</text>
    <text x="160" y="96" fill="#e6edf3">*</text>
    <text x="168" y="96" fill="#e6edf3">:</text>
    <text x="216" y="96" fill="#e6edf3">.</text>
    <text x="224" y="96" fill="#e6edf3">:</text>
    <text x="232" y="96" fill="#ffd166">*</text>
    <text x="240" y="96" fill="#39d6ff">?</text>
    <text x="248" y="96" fill="#39d6ff">?</text>
    <text x="256" y="96" fill="#39d6ff">*</text>
    <text x="264" y="96" fill="#39d6ff">+</text>
    <text x="272" y="96" fill="#39d6ff">:</text>
    <text x="280" y="96" fill="#39d6ff">.</text>
    <text x="16" y="110" fill="#ffd166">:</text>
    <text x="24" y="110" fill="#ff4fa3">+</text>
    <text x="32" y="110" fill="#ff4fa3">*</text>
    <text x="40" y="110" fill="#ff4fa3">*</text>
    <text x="48" y="110" fill="#ff4fa3">*</text>
    <text x="56" y="110" fill="#ff4fa3">*</text>
    <text x="64" y="110" fill="#ff4fa3">*</text>
    <text x="72" y="110" fill="#ff4fa3">+</text>
    <text x="80" y="110" fill="#ff4fa3">;</text>
    <text x="88" y="110" fill="#ffd166">+</text>
    <text x="96" y="110" fill="#ff4fa3">?</text>
    <text x="104" y="110" fill="#ffd166">?</text>
    <text x="112" y="110" fill="#39d6ff">?</text>
    <text x="120" y="110" fill="#39d6ff">?</text>
    <text x="128" y="110" fill="#39d6ff">%</text>
    <text x="136" y="110" fill="#39d6ff">%</text>
    <text x="144" y="110" fill="#39d6ff">?</text>
    <text x="152" y="110" fill="#39d6ff">?</text>
    <text x="160" y="110" fill="#39d6ff">%</text>
    <text x="168" y="110" fill="#39d6ff">?</text>
    <text x="176" y="110" fill="#e6edf3">;</text>
    <text x="184" y="110" fill="#e6edf3">,</text>
    <text x="208" y="110" fill="#e6edf3">,</text>
    <text x="216" y="110" fill="#ffd166">+</text>
    <text x="224" y="110" fill="#ffd166">?</text>
    <text x="232" y="110" fill="#39d6ff">?</text>
    <text x="240" y="110" fill="#39d6ff">?</text>
    <text x="248" y="110" fill="#39d6ff">*</text>
    <text x="256" y="110" fill="#39d6ff">+</text>
    <text x="264" y="110" fill="#39d6ff">,</text>
    <text x="8" y="124" fill="#e6edf3">,</text>
    <text x="16" y="124" fill="#ffd166">;</text>
    <text x="24" y="124" fill="#ff4fa3">*</text>
    <text x="32" y="124" fill="#ff4fa3">*</text>
    <text x="40" y="124" fill="#ff4fa3">?</text>
    <text x="48" y="124" fill="#ff4fa3">?</text>
    <text x="56" y="124" fill="#ff4fa3">*</text>
    <text x="64" y="124" fill="#ff4fa3">*</text>
    <text x="72" y="124" fill="#ff4fa3">*</text>
    <text x="80" y="124" fill="#ff4fa3">*</text>
    <text x="88" y="124" fill="#ff4fa3">*</text>
    <text x="96" y="124" fill="#ffd166">*</text>
    <text x="104" y="124" fill="#ffd166">+</text>
    <text x="112" y="124" fill="#ffd166">*</text>
    <text x="120" y="124" fill="#39d6ff">%</text>
    <text x="128" y="124" fill="#39d6ff">#</text>
    <text x="136" y="124" fill="#39d6ff">?</text>
    <text x="144" y="124" fill="#39d6ff">*</text>
    <text x="152" y="124" fill="#39d6ff">+</text>
    <text x="160" y="124" fill="#39d6ff">*</text>
    <text x="168" y="124" fill="#39d6ff">%</text>
    <text x="176" y="124" fill="#39d6ff">%</text>
    <text x="184" y="124" fill="#39d6ff">*</text>
    <text x="192" y="124" fill="#e6edf3">:</text>
    <text x="200" y="124" fill="#ffd166">:</text>
    <text x="208" y="124" fill="#ffd166">*</text>
    <text x="216" y="124" fill="#39d6ff">?</text>
    <text x="224" y="124" fill="#39d6ff">*</text>
    <text x="232" y="124" fill="#39d6ff">*</text>
    <text x="240" y="124" fill="#39d6ff">*</text>
    <text x="248" y="124" fill="#39d6ff">:</text>
    <text x="256" y="124" fill="#39d6ff">.</text>
    <text x="8" y="138" fill="#ffd166">:</text>
    <text x="16" y="138" fill="#ffd166">*</text>
    <text x="24" y="138" fill="#ffd166">?</text>
    <text x="32" y="138" fill="#ffd166">*</text>
    <text x="40" y="138" fill="#39d6ff">S</text>
    <text x="48" y="138" fill="#ffd166">?</text>
    <text x="56" y="138" fill="#ff4fa3">+</text>
    <text x="64" y="138" fill="#ff4fa3">*</text>
    <text x="72" y="138" fill="#ff4fa3">*</text>
    <text x="80" y="138" fill="#ff4fa3">;</text>
    <text x="88" y="138" fill="#ffd166">,</text>
    <text x="96" y="138" fill="#ff4fa3">.</text>
    <text x="120" y="138" fill="#ffd166">:</text>
    <text x="128" y="138" fill="#39d6ff">#</text>
    <text x="136" y="138" fill="#ffd166">S</text>
    <text x="144" y="138" fill="#ff4fa3">*</text>
    <text x="152" y="138" fill="#ff4fa3">*</text>
    <text x="160" y="138" fill="#39d6ff">?</text>
    <text x="168" y="138" fill="#39d6ff">%</text>
    <text x="176" y="138" fill="#39d6ff">*</text>
    <text x="184" y="138" fill="#ffd166">+</text>
    <text x="192" y="138" fill="#ffd166">+</text>
    <text x="200" y="138" fill="#39d6ff">%</text>
    <text x="208" y="138" fill="#39d6ff">S</text>
    <text x="216" y="138" fill="#39d6ff">%</text>
    <text x="224" y="138" fill="#39d6ff">*</text>
    <text x="232" y="138" fill="#39d6ff">;</text>
    <text x="240" y="138" fill="#39d6ff">,</text>
    <text x="0" y="152" fill="#e6edf3">,</text>
    <text x="8" y="152" fill="#39d6ff">+</text>
    <text x="16" y="152" fill="#39d6ff">%</text>
    <text x="24" y="152" fill="#39d6ff">?</text>
    <text x="32" y="152" fill="#ffd166">*</text>
    <text x="40" y="152" fill="#39d6ff">S</text>
    <text x="48" y="152" fill="#39d6ff">S</text>
    <text x="56" y="152" fill="#ff4fa3">*</text>
    <text x="64" y="152" fill="#ff4fa3">*</text>
    <text x="72" y="152" fill="#ff4fa3">,</text>
    <text x="120" y="152" fill="#ffd166">.</text>
    <text x="128" y="152" fill="#39d6ff">?</text>
    <text x="136" y="152" fill="#39d6ff">#</text>
    <text x="144" y="152" fill="#ffd166">%</text>
    <text x="152" y="152" fill="#ff4fa3">*</text>
    <text x="160" y="152" fill="#ffd166">+</text>
    <text x="168" y="152" fill="#ffd166">;</text>
    <text x="176" y="152" fill="#ff4fa3">,</text>
    <text x="184" y="152" fill="#ff4fa3">:</text>
    <text x="192" y="152" fill="#ff4fa3">+</text>
    <text x="200" y="152" fill="#39d6ff">?</text>
    <text x="208" y="152" fill="#ffd166">?</text>
    <text x="216" y="152" fill="#39d6ff">*</text>
    <text x="224" y="152" fill="#39d6ff">:</text>
    <text x="0" y="166" fill="#39d6ff">,</text>
    <text x="8" y="166" fill="#39d6ff">*</text>
    <text x="16" y="166" fill="#39d6ff">%</text>
    <text x="24" y="166" fill="#ff4fa3">*</text>
    <text x="32" y="166" fill="#ffd166">?</text>
    <text x="40" y="166" fill="#39d6ff">S</text>
    <text x="48" y="166" fill="#39d6ff">S</text>
    <text x="56" y="166" fill="#39d6ff">#</text>
    <text x="64" y="166" fill="#ff4fa3">?</text>
    <text x="72" y="166" fill="#e6edf3">:</text>
    <text x="80" y="166" fill="#e6edf3">,</text>
    <text x="88" y="166" fill="#e6edf3">,</text>
    <text x="96" y="166" fill="#e6edf3">.</text>
    <text x="104" y="166" fill="#e6edf3">,</text>
    <text x="112" y="166" fill="#ffd166">;</text>
    <text x="120" y="166" fill="#ff4fa3">%</text>
    <text x="128" y="166" fill="#39d6ff">#</text>
    <text x="136" y="166" fill="#39d6ff">%</text>
    <text x="144" y="166" fill="#ffd166">*</text>
    <text x="152" y="166" fill="#ff4fa3">+</text>
    <text x="160" y="166" fill="#ff4fa3">+</text>
    <text x="168" y="166" fill="#ffd166">+</text>
    <text x="176" y="166" fill="#ffd166">+</text>
    <text x="184" y="166" fill="#ff4fa3">%</text>
    <text x="192" y="166" fill="#ff4fa3">S</text>
    <text x="200" y="166" fill="#ff4fa3">?</text>
    <text x="208" y="166" fill="#ff4fa3">+</text>
    <text x="216" y="166" fill="#e6edf3">,</text>
    <text x="0" y="180" fill="#39d6ff">,</text>
    <text x="8" y="180" fill="#39d6ff">+</text>
    <text x="16" y="180" fill="#39d6ff">?</text>
    <text x="24" y="180" fill="#ff4fa3">*</text>
    <text x="32" y="180" fill="#ffd166">*</text>
    <text x="40" y="180" fill="#39d6ff">S</text>
    <text x="48" y="180" fill="#39d6ff">#</text>
    <text x="56" y="180" fill="#39d6ff">#</text>
    <text x="64" y="180" fill="#39d6ff">%</text>
    <text x="72" y="180" fill="#ff4fa3">?</text>
    <text x="80" y="180" fill="#ffd166">?</text>
    <text x="88" y="180" fill="#ffd166">+</text>
    <text x="96" y="180" fill="#ffd166">*</text>
    <text x="104" y="180" fill="#ffd166">?</text>
    <text x="112" y="180" fill="#39d6ff">S</text>
    <text x="120" y="180" fill="#39d6ff">%</text>
    <text x="128" y="180" fill="#39d6ff">*</text>
    <text x="136" y="180" fill="#ff4fa3">+</text>
    <text x="144" y="180" fill="#ff4fa3">*</text>
    <text x="152" y="180" fill="#ffd166">%</text>
    <text x="160" y="180" fill="#39d6ff">#</text>
    <text x="168" y="180" fill="#39d6ff">#</text>
    <text x="176" y="180" fill="#39d6ff">#</text>
    <text x="184" y="180" fill="#39d6ff">#</text>
    <text x="192" y="180" fill="#39d6ff">%</text>
    <text x="200" y="180" fill="#39d6ff">;</text>
    <text x="8" y="194" fill="#39d6ff">:</text>
    <text x="16" y="194" fill="#39d6ff">?</text>
    <text x="24" y="194" fill="#ff4fa3">+</text>
    <text x="32" y="194" fill="#ff4fa3">:</text>
    <text x="40" y="194" fill="#ff4fa3">+</text>
    <text x="48" y="194" fill="#39d6ff">?</text>
    <text x="56" y="194" fill="#39d6ff">S</text>
    <text x="64" y="194" fill="#39d6ff">#</text>
    <text x="72" y="194" fill="#ffd166">%</text>
    <text x="80" y="194" fill="#ffd166">%</text>
    <text x="88" y="194" fill="#ffd166">?</text>
    <text x="96" y="194" fill="#ffd166">?</text>
    <text x="104" y="194" fill="#39d6ff">?</text>
    <text x="112" y="194" fill="#39d6ff">*</text>
    <text x="120" y="194" fill="#ffd166">;</text>
    <text x="128" y="194" fill="#ff4fa3">+</text>
    <text x="136" y="194" fill="#ff4fa3">%</text>
    <text x="144" y="194" fill="#39d6ff">@</text>
    <text x="152" y="194" fill="#39d6ff">@</text>
    <text x="160" y="194" fill="#39d6ff">#</text>
    <text x="168" y="194" fill="#39d6ff">#</text>
    <text x="176" y="194" fill="#39d6ff">#</text>
    <text x="184" y="194" fill="#39d6ff">#</text>
    <text x="192" y="194" fill="#39d6ff">*</text>
    <text x="200" y="194" fill="#39d6ff">.</text>
    <text x="8" y="208" fill="#39d6ff">,</text>
    <text x="16" y="208" fill="#39d6ff">+</text>
    <text x="24" y="208" fill="#ffd166">%</text>
    <text x="32" y="208" fill="#ff4fa3">*</text>
    <text x="40" y="208" fill="#ff4fa3">+</text>
    <text x="48" y="208" fill="#ff4fa3">;</text>
    <text x="56" y="208" fill="#39d6ff">+</text>
    <text x="64" y="208" fill="#39d6ff">*</text>
    <text x="72" y="208" fill="#ffd166">+</text>
    <text x="80" y="208" fill="#ffd166">+</text>
    <text x="88" y="208" fill="#ffd166">+</text>
    <text x="96" y="208" fill="#ffd166">*</text>
    <text x="104" y="208" fill="#ffd166">?</text>
    <text x="112" y="208" fill="#ffd166">?</text>
    <text x="120" y="208" fill="#ffd166">?</text>
    <text x="128" y="208" fill="#39d6ff">%</text>
    <text x="136" y="208" fill="#39d6ff">@</text>
    <text x="144" y="208" fill="#39d6ff">S</text>
    <text x="152" y="208" fill="#39d6ff">%</text>
    <text x="160" y="208" fill="#39d6ff">%</text>
    <text x="168" y="208" fill="#39d6ff">%</text>
    <text x="176" y="208" fill="#39d6ff">#</text>
    <text x="184" y="208" fill="#39d6ff">#</text>
    <text x="192" y="208" fill="#39d6ff">?</text>
    <text x="200" y="208" fill="#39d6ff">,</text>
    <text x="16" y="222" fill="#39d6ff">:</text>
    <text x="24" y="222" fill="#39d6ff">?</text>
    <text x="32" y="222" fill="#39d6ff">%</text>
    <text x="40" y="222" fill="#ffd166">%</text>
    <text x="48" y="222" fill="#ff4fa3">*</text>
    <text x="56" y="222" fill="#ff4fa3">+</text>
    <text x="64" y="222" fill="#ff4fa3">;</text>
    <text x="72" y="222" fill="#ff4fa3">,</text>
    <text x="80" y="222" fill="#ff4fa3">:</text>
    <text x="88" y="222" fill="#ff4fa3">+</text>
    <text x="96" y="222" fill="#ff4fa3">?</text>
    <text x="104" y="222" fill="#39d6ff">S</text>
    <text x="112" y="222" fill="#39d6ff">#</text>
    <text x="120" y="222" fill="#39d6ff">@</text>
    <text x="128" y="222" fill="#39d6ff">#</text>
    <text x="136" y="222" fill="#39d6ff">#</text>
    <text x="144" y="222" fill="#39d6ff">#</text>
    <text x="152" y="222" fill="#39d6ff">@</text>
    <text x="160" y="222" fill="#39d6ff">%</text>
    <text x="168" y="222" fill="#39d6ff">?</text>
    <text x="176" y="222" fill="#39d6ff">#</text>
    <text x="184" y="222" fill="#39d6ff">%</text>
    <text x="192" y="222" fill="#39d6ff">%</text>
    <text x="200" y="222" fill="#39d6ff">:</text>
    <text x="16" y="236" fill="#39d6ff">,</text>
    <text x="24" y="236" fill="#39d6ff">+</text>
    <text x="32" y="236" fill="#39d6ff">%</text>
    <text x="40" y="236" fill="#39d6ff">S</text>
    <text x="48" y="236" fill="#39d6ff">@</text>
    <text x="56" y="236" fill="#ffd166">#</text>
    <text x="64" y="236" fill="#ff4fa3">S</text>
    <text x="72" y="236" fill="#ff4fa3">+</text>
    <text x="80" y="236" fill="#ffd166">*</text>
    <text x="88" y="236" fill="#ff4fa3">%</text>
    <text x="96" y="236" fill="#ff4fa3">S</text>
    <text x="104" y="236" fill="#39d6ff">#</text>
    <text x="112" y="236" fill="#39d6ff">#</text>
    <text x="120" y="236" fill="#e6edf3">@</text>
    <text x="128" y="236" fill="#39d6ff">@</text>
    <text x="136" y="236" fill="#39d6ff">@</text>
    <text x="144" y="236" fill="#39d6ff">S</text>
    <text x="152" y="236" fill="#e6edf3">#</text>
    <text x="160" y="236" fill="#39d6ff">#</text>
    <text x="168" y="236" fill="#39d6ff">S</text>
    <text x="176" y="236" fill="#39d6ff">@</text>
    <text x="184" y="236" fill="#39d6ff">S</text>
    <text x="192" y="236" fill="#39d6ff">S</text>
    <text x="200" y="236" fill="#39d6ff">?</text>
    <text x="208" y="236" fill="#e6edf3">,</text>
    <text x="24" y="250" fill="#39d6ff">:</text>
    <text x="32" y="250" fill="#39d6ff">*</text>
    <text x="40" y="250" fill="#39d6ff">S</text>
    <text x="48" y="250" fill="#39d6ff">@</text>
    <text x="56" y="250" fill="#39d6ff">@</text>
    <text x="64" y="250" fill="#39d6ff">@</text>
    <text x="72" y="250" fill="#39d6ff">#</text>
    <text x="80" y="250" fill="#39d6ff">S</text>
    <text x="88" y="250" fill="#39d6ff">#</text>
    <text x="96" y="250" fill="#39d6ff">S</text>
    <text x="104" y="250" fill="#39d6ff">S</text>
    <text x="112" y="250" fill="#39d6ff">#</text>
    <text x="120" y="250" fill="#39d6ff">@</text>
    <text x="128" y="250" fill="#e6edf3">@</text>
    <text x="136" y="250" fill="#39d6ff">#</text>
    <text x="144" y="250" fill="#39d6ff">%</text>
    <text x="152" y="250" fill="#39d6ff">S</text>
    <text x="160" y="250" fill="#39d6ff">S</text>
    <text x="168" y="250" fill="#39d6ff">#</text>
    <text x="176" y="250" fill="#39d6ff">#</text>
    <text x="184" y="250" fill="#39d6ff">S</text>
    <text x="192" y="250" fill="#39d6ff">%</text>
    <text x="200" y="250" fill="#39d6ff">*</text>
    <text x="208" y="250" fill="#39d6ff">;</text>
    <text x="216" y="250" fill="#e6edf3">.</text>
    <text x="32" y="264" fill="#39d6ff">.</text>
    <text x="40" y="264" fill="#39d6ff">:</text>
    <text x="48" y="264" fill="#e6edf3">+</text>
    <text x="56" y="264" fill="#ff4fa3">%</text>
    <text x="64" y="264" fill="#39d6ff">#</text>
    <text x="72" y="264" fill="#39d6ff">#</text>
    <text x="80" y="264" fill="#39d6ff">@</text>
    <text x="88" y="264" fill="#39d6ff">#</text>
    <text x="96" y="264" fill="#39d6ff">@</text>
    <text x="104" y="264" fill="#39d6ff">@</text>
    <text x="112" y="264" fill="#39d6ff">#</text>
    <text x="120" y="264" fill="#39d6ff">@</text>
    <text x="128" y="264" fill="#39d6ff">@</text>
    <text x="136" y="264" fill="#39d6ff">#</text>
    <text x="144" y="264" fill="#e6edf3">#</text>
    <text x="152" y="264" fill="#39d6ff">#</text>
    <text x="160" y="264" fill="#39d6ff">?</text>
    <text x="168" y="264" fill="#39d6ff">#</text>
    <text x="176" y="264" fill="#39d6ff">%</text>
    <text x="184" y="264" fill="#39d6ff">S</text>
    <text x="192" y="264" fill="#39d6ff">S</text>
    <text x="200" y="264" fill="#39d6ff">#</text>
    <text x="208" y="264" fill="#e6edf3">?</text>
    <text x="216" y="264" fill="#e6edf3">:</text>
    <text x="56" y="278" fill="#e6edf3">,</text>
    <text x="64" y="278" fill="#e6edf3">;</text>
    <text x="72" y="278" fill="#e6edf3">?</text>
    <text x="80" y="278" fill="#e6edf3">S</text>
    <text x="88" y="278" fill="#e6edf3">#</text>
    <text x="96" y="278" fill="#39d6ff">@</text>
    <text x="104" y="278" fill="#39d6ff">#</text>
    <text x="112" y="278" fill="#39d6ff">@</text>
    <text x="120" y="278" fill="#e6edf3">@</text>
    <text x="128" y="278" fill="#e6edf3">@</text>
    <text x="136" y="278" fill="#39d6ff">@</text>
    <text x="144" y="278" fill="#39d6ff">S</text>
    <text x="152" y="278" fill="#39d6ff">%</text>
    <text x="160" y="278" fill="#39d6ff">S</text>
    <text x="168" y="278" fill="#39d6ff">#</text>
    <text x="176" y="278" fill="#39d6ff">S</text>
    <text x="184" y="278" fill="#39d6ff">S</text>
    <text x="192" y="278" fill="#39d6ff">?</text>
    <text x="200" y="278" fill="#e6edf3">?</text>
    <text x="208" y="278" fill="#e6edf3">S</text>
    <text x="216" y="278" fill="#e6edf3">;</text>
    <text x="224" y="278" fill="#e6edf3">.</text>
    <text x="72" y="292" fill="#e6edf3">:</text>
    <text x="80" y="292" fill="#e6edf3">?</text>
    <text x="88" y="292" fill="#e6edf3">S</text>
    <text x="96" y="292" fill="#39d6ff">@</text>
    <text x="104" y="292" fill="#39d6ff">#</text>
    <text x="112" y="292" fill="#39d6ff">%</text>
    <text x="120" y="292" fill="#39d6ff">%</text>
    <text x="128" y="292" fill="#39d6ff">#</text>
    <text x="136" y="292" fill="#39d6ff">#</text>
    <text x="144" y="292" fill="#39d6ff">S</text>
    <text x="152" y="292" fill="#39d6ff">%</text>
    <text x="160" y="292" fill="#39d6ff">S</text>
    <text x="168" y="292" fill="#39d6ff">#</text>
    <text x="176" y="292" fill="#39d6ff">%</text>
    <text x="184" y="292" fill="#39d6ff">S</text>
    <text x="192" y="292" fill="#39d6ff">#</text>
    <text x="200" y="292" fill="#e6edf3">#</text>
    <text x="208" y="292" fill="#39d6ff">#</text>
    <text x="216" y="292" fill="#e6edf3">*</text>
    <text x="224" y="292" fill="#e6edf3">:</text>
    <text x="72" y="306" fill="#e6edf3">.</text>
    <text x="80" y="306" fill="#e6edf3">+</text>
    <text x="88" y="306" fill="#39d6ff">%</text>
    <text x="96" y="306" fill="#39d6ff">#</text>
    <text x="104" y="306" fill="#39d6ff">S</text>
    <text x="112" y="306" fill="#39d6ff">S</text>
    <text x="120" y="306" fill="#39d6ff">S</text>
    <text x="128" y="306" fill="#39d6ff">#</text>
    <text x="136" y="306" fill="#39d6ff">#</text>
    <text x="144" y="306" fill="#39d6ff">S</text>
    <text x="152" y="306" fill="#39d6ff">S</text>
    <text x="160" y="306" fill="#39d6ff">%</text>
    <text x="168" y="306" fill="#39d6ff">%</text>
    <text x="176" y="306" fill="#39d6ff">S</text>
    <text x="184" y="306" fill="#e6edf3">#</text>
    <text x="192" y="306" fill="#39d6ff">@</text>
    <text x="200" y="306" fill="#e6edf3">#</text>
    <text x="208" y="306" fill="#39d6ff">@</text>
    <text x="216" y="306" fill="#e6edf3">S</text>
    <text x="224" y="306" fill="#e6edf3">+</text>
    <text x="232" y="306" fill="#e6edf3">.</text>
    <text x="80" y="320" fill="#e6edf3">:</text>
    <text x="88" y="320" fill="#39d6ff">?</text>
    <text x="96" y="320" fill="#39d6ff">#</text>
    <text x="104" y="320" fill="#e6edf3">@</text>
    <text x="112" y="320" fill="#39d6ff">@</text>
    <text x="120" y="320" fill="#39d6ff">@</text>
    <text x="128" y="320" fill="#39d6ff">#</text>
    <text x="136" y="320" fill="#39d6ff">@</text>
    <text x="144" y="320" fill="#39d6ff">S</text>
    <text x="152" y="320" fill="#39d6ff">S</text>
    <text x="160" y="320" fill="#39d6ff">S</text>
    <text x="168" y="320" fill="#39d6ff">S</text>
    <text x="176" y="320" fill="#39d6ff">S</text>
    <text x="184" y="320" fill="#39d6ff">S</text>
    <text x="192" y="320" fill="#e6edf3">@</text>
    <text x="200" y="320" fill="#39d6ff">@</text>
    <text x="208" y="320" fill="#39d6ff">@</text>
    <text x="216" y="320" fill="#e6edf3">#</text>
    <text x="224" y="320" fill="#e6edf3">*</text>
    <text x="232" y="320" fill="#e6edf3">:</text>
    <text x="80" y="334" fill="#39d6ff">,</text>
    <text x="88" y="334" fill="#39d6ff">+</text>
    <text x="96" y="334" fill="#e6edf3">S</text>
    <text x="104" y="334" fill="#39d6ff">#</text>
    <text x="112" y="334" fill="#39d6ff">@</text>
    <text x="120" y="334" fill="#39d6ff">@</text>
    <text x="128" y="334" fill="#39d6ff">@</text>
    <text x="136" y="334" fill="#39d6ff">@</text>
    <text x="144" y="334" fill="#39d6ff">#</text>
    <text x="152" y="334" fill="#39d6ff">S</text>
    <text x="160" y="334" fill="#39d6ff">S</text>
    <text x="168" y="334" fill="#39d6ff">S</text>
    <text x="176" y="334" fill="#39d6ff">S</text>
    <text x="184" y="334" fill="#39d6ff">S</text>
    <text x="192" y="334" fill="#39d6ff">S</text>
    <text x="200" y="334" fill="#e6edf3">#</text>
    <text x="208" y="334" fill="#39d6ff">@</text>
    <text x="216" y="334" fill="#e6edf3">@</text>
    <text x="224" y="334" fill="#e6edf3">S</text>
    <text x="232" y="334" fill="#e6edf3">+</text>
    <text x="240" y="334" fill="#e6edf3">.</text>
    <text x="88" y="348" fill="#39d6ff">:</text>
    <text x="96" y="348" fill="#e6edf3">%</text>
    <text x="104" y="348" fill="#39d6ff">#</text>
    <text x="112" y="348" fill="#39d6ff">@</text>
    <text x="120" y="348" fill="#39d6ff">@</text>
    <text x="128" y="348" fill="#39d6ff">@</text>
    <text x="136" y="348" fill="#39d6ff">@</text>
    <text x="144" y="348" fill="#39d6ff">#</text>
    <text x="152" y="348" fill="#39d6ff">#</text>
    <text x="160" y="348" fill="#39d6ff">#</text>
    <text x="168" y="348" fill="#39d6ff">#</text>
    <text x="176" y="348" fill="#39d6ff">#</text>
    <text x="184" y="348" fill="#39d6ff">#</text>
    <text x="192" y="348" fill="#39d6ff">S</text>
    <text x="200" y="348" fill="#39d6ff">#</text>
    <text x="208" y="348" fill="#e6edf3">#</text>
    <text x="216" y="348" fill="#39d6ff">@</text>
    <text x="224" y="348" fill="#39d6ff">#</text>
    <text x="232" y="348" fill="#e6edf3">*</text>
    <text x="240" y="348" fill="#e6edf3">:</text>
    <text x="88" y="362" fill="#39d6ff">,</text>
    <text x="96" y="362" fill="#39d6ff">*</text>
    <text x="104" y="362" fill="#ffd166">#</text>
    <text x="112" y="362" fill="#39d6ff">@</text>
    <text x="120" y="362" fill="#39d6ff">@</text>
    <text x="128" y="362" fill="#39d6ff">@</text>
    <text x="136" y="362" fill="#39d6ff">@</text>
    <text x="144" y="362" fill="#39d6ff">#</text>
    <text x="152" y="362" fill="#39d6ff">#</text>
    <text x="160" y="362" fill="#39d6ff">#</text>
    <text x="168" y="362" fill="#39d6ff">#</text>
    <text x="176" y="362" fill="#39d6ff">#</text>
    <text x="184" y="362" fill="#39d6ff">#</text>
    <text x="192" y="362" fill="#39d6ff">#</text>
    <text x="200" y="362" fill="#39d6ff">#</text>
    <text x="208" y="362" fill="#39d6ff">#</text>
    <text x="216" y="362" fill="#39d6ff">#</text>
    <text x="224" y="362" fill="#e6edf3">@</text>
    <text x="232" y="362" fill="#e6edf3">%</text>
    <text x="240" y="362" fill="#e6edf3">;</text>
    <text x="248" y="362" fill="#e6edf3">.</text>
    <text x="96" y="376" fill="#39d6ff">;</text>
    <text x="104" y="376" fill="#39d6ff">%</text>
    <text x="112" y="376" fill="#e6edf3">@</text>
    <text x="120" y="376" fill="#39d6ff">@</text>
    <text x="128" y="376" fill="#39d6ff">@</text>
    <text x="136" y="376" fill="#39d6ff">@</text>
    <text x="144" y="376" fill="#39d6ff">@</text>
    <text x="152" y="376" fill="#39d6ff">@</text>
    <text x="160" y="376" fill="#39d6ff">@</text>
    <text x="168" y="376" fill="#39d6ff">@</text>
    <text x="176" y="376" fill="#39d6ff">@</text>
    <text x="184" y="376" fill="#39d6ff">@</text>
    <text x="192" y="376" fill="#39d6ff">@</text>
    <text x="200" y="376" fill="#e6edf3">@</text>
    <text x="208" y="376" fill="#39d6ff">@</text>
    <text x="216" y="376" fill="#39d6ff">@</text>
    <text x="224" y="376" fill="#e6edf3">@</text>
    <text x="232" y="376" fill="#e6edf3">#</text>
    <text x="240" y="376" fill="#e6edf3">*</text>
    <text x="248" y="376" fill="#e6edf3">,</text>
    <text x="96" y="390" fill="#39d6ff">,</text>
    <text x="104" y="390" fill="#39d6ff">*</text>
    <text x="112" y="390" fill="#39d6ff">S</text>
    <text x="120" y="390" fill="#39d6ff">@</text>
    <text x="128" y="390" fill="#39d6ff">@</text>
    <text x="136" y="390" fill="#39d6ff">@</text>
    <text x="144" y="390" fill="#e6edf3">@</text>
    <text x="152" y="390" fill="#39d6ff">@</text>
    <text x="160" y="390" fill="#39d6ff">@</text>
    <text x="168" y="390" fill="#39d6ff">@</text>
    <text x="176" y="390" fill="#39d6ff">@</text>
    <text x="184" y="390" fill="#39d6ff">@</text>
    <text x="192" y="390" fill="#39d6ff">@</text>
    <text x="200" y="390" fill="#39d6ff">@</text>
    <text x="208" y="390" fill="#e6edf3">@</text>
    <text x="216" y="390" fill="#e6edf3">@</text>
    <text x="224" y="390" fill="#e6edf3">@</text>
    <text x="232" y="390" fill="#e6edf3">@</text>
    <text x="240" y="390" fill="#e6edf3">%</text>
    <text x="248" y="390" fill="#e6edf3">;</text>
  </g>
</svg>
